<?xml version="1.0" encoding="UTF-8" standalone="no"?><!DOCTYPE svg PUBLIC "-//W3C//DTD SVG 1.1//EN" "http://www.w3.org/Graphics/SVG/1.1/DTD/svg11.dtd"><svg width="100%" height="100%" viewBox="0 0 782 283" version="1.1" xmlns="http://www.w3.org/2000/svg" xmlns:xlink="http://www.w3.org/1999/xlink" xml:space="preserve" xmlns:serif="http://www.serif.com/" style="fill-rule:evenodd;clip-rule:evenodd;stroke-linejoin:round;stroke-miterlimit:2;"><g><path d="M781.194,0l-62.187,0c-61.141,0 -110.705,49.564 -110.705,110.704c0,61.141 49.564,110.705 110.705,110.705l62.187,-0l0,-32.605l-62.187,0l-0,-0.007c-43.13,0 -78.093,-34.963 -78.093,-78.093c-0,-43.129 34.963,-78.093 78.093,-78.093l-0,-0.007l62.187,0l0,-32.604Z" style="fill:#128191;"/><path d="M342.224,156.276c43.154,-0 78.138,-34.984 78.138,-78.138c-0,-43.155 -34.984,-78.138 -78.138,-78.138l-0,33.87c24.449,-0 44.268,19.819 44.268,44.268c0,24.448 -19.819,44.268 -44.268,44.268l-0,33.87Zm-57.905,65.133l-0,-65.133l57.905,-0l-0,-33.789l-57.905,0l-0,-122.487l-33.789,0l0,221.409l33.789,-0Zm57.905,-221.409l-44.79,0l0,33.788l44.79,0l-0,-33.788Z" style="fill:#128191;"/><path d="M477.607,187.62l0,-60.021l105.463,-0l-0,-33.789l-105.463,0l0,-60.022l130.695,0l0,-33.788l-164.483,0l-0,221.409l164.483,-0l0,-33.789l-130.695,0Z" style="fill:#128191;"/><path d="M22.377,0l-22.377,0l0,221.409l22.377,-0l-0,-221.409Zm199.241,0l-199.241,0l-0,22.377l176.864,-0l0,176.655l-136.042,-0l-0,-155.415l-22.377,0l-0,177.792l180.796,-0l0,-221.409Zm-158.419,181.827l118.084,0l-0,-138.21l-118.084,0l-0,22.377l95.707,0l0,16.774l-78.913,0l0,60.933l78.913,0l0,15.749l-95.707,0l-0,22.377Zm95.707,-76.682l-57.84,0l0,16.179l57.84,0l0,-16.179Z" style="fill:#128191;"/><path d="M3.065,273.168l0,-32.512l13.377,0c2.043,0 3.847,0.41 5.411,1.231c1.563,0.82 2.786,1.974 3.669,3.46c0.882,1.486 1.323,3.251 1.323,5.295l0,0.65c0,2.013 -0.456,3.77 -1.37,5.272c-0.913,1.501 -2.152,2.662 -3.715,3.483c-1.564,0.82 -3.337,1.231 -5.318,1.231l-7.246,-0l0,11.89l-6.131,-0Zm6.131,-17.464l6.642,0c1.455,0 2.632,-0.402 3.53,-1.207c0.898,-0.805 1.347,-1.905 1.347,-3.298l-0,-0.464c-0,-1.394 -0.449,-2.493 -1.347,-3.298c-0.898,-0.805 -2.075,-1.208 -3.53,-1.208l-6.642,0l0,9.475Z" style="fill:#128191;fill-rule:nonzero;"/><path d="M29.52,273.168l-0,-23.037l5.759,-0l-0,2.601l0.836,-0c0.341,-0.929 0.906,-1.61 1.695,-2.044c0.79,-0.433 1.711,-0.65 2.764,-0.65l2.786,-0l0,5.202l-2.879,-0c-1.486,-0 -2.709,0.395 -3.669,1.184c-0.96,0.79 -1.44,2.005 -1.44,3.646l-0,13.098l-5.852,-0Z" style="fill:#128191;fill-rule:nonzero;"/><path d="M56.253,273.818c-2.291,-0 -4.351,-0.464 -6.177,-1.393c-1.827,-0.929 -3.267,-2.276 -4.32,-4.041c-1.053,-1.765 -1.579,-3.886 -1.579,-6.363l0,-0.743c0,-2.477 0.526,-4.598 1.579,-6.363c1.053,-1.765 2.493,-3.112 4.32,-4.041c1.826,-0.929 3.886,-1.393 6.177,-1.393c2.291,-0 4.35,0.464 6.177,1.393c1.827,0.929 3.267,2.276 4.319,4.041c1.053,1.765 1.58,3.886 1.58,6.363l-0,0.743c-0,2.477 -0.527,4.598 -1.58,6.363c-1.052,1.765 -2.492,3.112 -4.319,4.041c-1.827,0.929 -3.886,1.393 -6.177,1.393Zm-0,-5.202c1.796,0 3.282,-0.58 4.459,-1.742c1.176,-1.161 1.764,-2.825 1.764,-4.992l0,-0.465c0,-2.167 -0.58,-3.832 -1.741,-4.993c-1.161,-1.161 -2.655,-1.742 -4.482,-1.742c-1.796,0 -3.282,0.581 -4.459,1.742c-1.177,1.161 -1.765,2.826 -1.765,4.993l0,0.465c0,2.167 0.588,3.831 1.765,4.992c1.177,1.162 2.663,1.742 4.459,1.742Z" style="fill:#128191;fill-rule:nonzero;"/><path d="M74.997,273.168l0,-18.207l-5.852,0l0,-4.83l5.852,-0l0,-4.273c0,-1.579 0.472,-2.841 1.417,-3.785c0.944,-0.945 2.175,-1.417 3.692,-1.417l6.038,0l0,4.83l-3.994,0c-0.867,0 -1.301,0.465 -1.301,1.394l0,3.251l6.038,-0l0,4.83l-6.038,0l0,18.207l-5.852,-0Z" style="fill:#128191;fill-rule:nonzero;"/><path d="M99.408,273.818c-2.291,-0 -4.312,-0.488 -6.061,-1.463c-1.749,-0.975 -3.112,-2.353 -4.087,-4.134c-0.976,-1.78 -1.463,-3.878 -1.463,-6.293l-0,-0.557c-0,-2.416 0.48,-4.513 1.44,-6.294c0.959,-1.78 2.306,-3.158 4.04,-4.133c1.734,-0.976 3.747,-1.463 6.038,-1.463c2.26,-0 4.227,0.503 5.899,1.509c1.672,1.006 2.972,2.4 3.901,4.18c0.929,1.781 1.393,3.847 1.393,6.201l0,1.997l-16.766,-0c0.062,1.579 0.65,2.864 1.765,3.855c1.114,0.991 2.477,1.486 4.087,1.486c1.641,-0 2.848,-0.356 3.623,-1.068c0.774,-0.712 1.362,-1.502 1.764,-2.369l4.784,2.508c-0.433,0.805 -1.06,1.68 -1.881,2.624c-0.82,0.945 -1.912,1.75 -3.274,2.415c-1.362,0.666 -3.096,0.999 -5.202,0.999Zm-5.62,-14.816l10.775,-0c-0.123,-1.332 -0.657,-2.4 -1.602,-3.205c-0.944,-0.805 -2.175,-1.207 -3.692,-1.207c-1.579,-0 -2.833,0.402 -3.762,1.207c-0.929,0.805 -1.502,1.873 -1.719,3.205Z" style="fill:#128191;fill-rule:nonzero;"/><path d="M123.494,273.818c-3.004,-0 -5.465,-0.65 -7.385,-1.951c-1.92,-1.3 -3.081,-3.158 -3.483,-5.573l5.387,-1.394c0.217,1.084 0.581,1.936 1.092,2.555c0.511,0.619 1.145,1.06 1.904,1.324c0.759,0.263 1.587,0.394 2.485,0.394c1.362,0 2.368,-0.24 3.019,-0.719c0.65,-0.48 0.975,-1.076 0.975,-1.789c0,-0.712 -0.31,-1.261 -0.929,-1.648c-0.619,-0.387 -1.61,-0.705 -2.972,-0.953l-1.301,-0.232c-1.61,-0.309 -3.081,-0.735 -4.412,-1.277c-1.332,-0.542 -2.4,-1.293 -3.205,-2.253c-0.805,-0.959 -1.207,-2.198 -1.207,-3.715c-0,-2.292 0.836,-4.049 2.508,-5.272c1.672,-1.223 3.87,-1.834 6.595,-1.834c2.57,-0 4.706,0.572 6.409,1.718c1.703,1.146 2.818,2.647 3.344,4.505l-5.434,1.672c-0.247,-1.176 -0.751,-2.012 -1.509,-2.508c-0.759,-0.495 -1.696,-0.743 -2.81,-0.743c-1.115,0 -1.966,0.194 -2.555,0.581c-0.588,0.387 -0.882,0.921 -0.882,1.602c-0,0.743 0.309,1.293 0.929,1.649c0.619,0.356 1.455,0.627 2.508,0.813l1.3,0.232c1.734,0.31 3.306,0.72 4.714,1.231c1.409,0.511 2.524,1.238 3.345,2.183c0.82,0.944 1.23,2.221 1.23,3.831c0,2.416 -0.874,4.281 -2.624,5.597c-1.749,1.316 -4.095,1.974 -7.036,1.974Z" style="fill:#128191;fill-rule:nonzero;"/><path d="M146.047,273.818c-3.004,-0 -5.465,-0.65 -7.385,-1.951c-1.92,-1.3 -3.081,-3.158 -3.484,-5.573l5.388,-1.394c0.217,1.084 0.581,1.936 1.092,2.555c0.511,0.619 1.145,1.06 1.904,1.324c0.758,0.263 1.587,0.394 2.485,0.394c1.362,0 2.368,-0.24 3.019,-0.719c0.65,-0.48 0.975,-1.076 0.975,-1.789c-0,-0.712 -0.31,-1.261 -0.929,-1.648c-0.619,-0.387 -1.61,-0.705 -2.972,-0.953l-1.301,-0.232c-1.61,-0.309 -3.081,-0.735 -4.412,-1.277c-1.332,-0.542 -2.4,-1.293 -3.205,-2.253c-0.805,-0.959 -1.207,-2.198 -1.207,-3.715c-0,-2.292 0.836,-4.049 2.508,-5.272c1.672,-1.223 3.87,-1.834 6.595,-1.834c2.57,-0 4.706,0.572 6.409,1.718c1.703,1.146 2.818,2.647 3.344,4.505l-5.434,1.672c-0.248,-1.176 -0.751,-2.012 -1.509,-2.508c-0.759,-0.495 -1.696,-0.743 -2.81,-0.743c-1.115,0 -1.966,0.194 -2.555,0.581c-0.588,0.387 -0.882,0.921 -0.882,1.602c-0,0.743 0.309,1.293 0.929,1.649c0.619,0.356 1.455,0.627 2.508,0.813l1.3,0.232c1.734,0.31 3.306,0.72 4.714,1.231c1.409,0.511 2.524,1.238 3.345,2.183c0.82,0.944 1.23,2.221 1.23,3.831c0,2.416 -0.874,4.281 -2.624,5.597c-1.749,1.316 -4.095,1.974 -7.036,1.974Z" style="fill:#128191;fill-rule:nonzero;"/><path d="M159.032,273.168l-0,-23.037l5.852,-0l0,23.037l-5.852,-0Zm2.926,-25.731c-1.053,0 -1.943,-0.341 -2.671,-1.022c-0.727,-0.681 -1.091,-1.579 -1.091,-2.694c-0,-1.114 0.364,-2.012 1.091,-2.693c0.728,-0.682 1.618,-1.022 2.671,-1.022c1.084,-0 1.982,0.34 2.694,1.022c0.712,0.681 1.068,1.579 1.068,2.693c0,1.115 -0.356,2.013 -1.068,2.694c-0.712,0.681 -1.61,1.022 -2.694,1.022Z" style="fill:#128191;fill-rule:nonzero;"/><path d="M180.563,273.818c-2.291,-0 -4.35,-0.464 -6.177,-1.393c-1.827,-0.929 -3.267,-2.276 -4.32,-4.041c-1.052,-1.765 -1.579,-3.886 -1.579,-6.363l0,-0.743c0,-2.477 0.527,-4.598 1.579,-6.363c1.053,-1.765 2.493,-3.112 4.32,-4.041c1.827,-0.929 3.886,-1.393 6.177,-1.393c2.291,-0 4.35,0.464 6.177,1.393c1.827,0.929 3.267,2.276 4.32,4.041c1.052,1.765 1.579,3.886 1.579,6.363l-0,0.743c-0,2.477 -0.527,4.598 -1.579,6.363c-1.053,1.765 -2.493,3.112 -4.32,4.041c-1.827,0.929 -3.886,1.393 -6.177,1.393Zm0,-5.202c1.796,0 3.282,-0.58 4.459,-1.742c1.176,-1.161 1.765,-2.825 1.765,-4.992l-0,-0.465c-0,-2.167 -0.581,-3.832 -1.742,-4.993c-1.161,-1.161 -2.655,-1.742 -4.482,-1.742c-1.796,0 -3.282,0.581 -4.459,1.742c-1.176,1.161 -1.765,2.826 -1.765,4.993l0,0.465c0,2.167 0.589,3.831 1.765,4.992c1.177,1.162 2.663,1.742 4.459,1.742Z" style="fill:#128191;fill-rule:nonzero;"/><path d="M196.242,273.168l0,-23.037l5.759,-0l0,3.019l0.836,-0c0.372,-0.805 1.069,-1.572 2.09,-2.299c1.022,-0.728 2.57,-1.092 4.645,-1.092c1.796,0 3.367,0.411 4.714,1.231c1.347,0.821 2.392,1.951 3.135,3.391c0.743,1.439 1.115,3.119 1.115,5.039l-0,13.748l-5.852,-0l-0,-13.284c-0,-1.734 -0.426,-3.034 -1.277,-3.901c-0.852,-0.867 -2.067,-1.301 -3.646,-1.301c-1.796,0 -3.19,0.597 -4.18,1.789c-0.991,1.192 -1.487,2.856 -1.487,4.993l0,11.704l-5.852,-0Z" style="fill:#128191;fill-rule:nonzero;"/><path d="M230.221,273.818c-1.641,-0 -3.112,-0.286 -4.413,-0.859c-1.3,-0.573 -2.33,-1.409 -3.088,-2.508c-0.759,-1.1 -1.138,-2.439 -1.138,-4.018c-0,-1.579 0.379,-2.903 1.138,-3.971c0.758,-1.068 1.811,-1.873 3.158,-2.415c1.347,-0.542 2.887,-0.813 4.621,-0.813l6.317,0l-0,-1.3c-0,-1.084 -0.341,-1.974 -1.022,-2.671c-0.681,-0.697 -1.765,-1.045 -3.251,-1.045c-1.455,0 -2.539,0.333 -3.251,0.999c-0.712,0.665 -1.177,1.525 -1.394,2.577l-5.387,-1.811c0.371,-1.177 0.967,-2.253 1.788,-3.228c0.82,-0.975 1.92,-1.765 3.298,-2.369c1.377,-0.603 3.057,-0.905 5.039,-0.905c3.034,-0 5.434,0.758 7.199,2.275c1.765,1.518 2.647,3.716 2.647,6.596l0,8.592c0,0.929 0.434,1.393 1.301,1.393l1.858,0l-0,4.831l-3.902,-0c-1.146,-0 -2.09,-0.279 -2.833,-0.836c-0.743,-0.558 -1.115,-1.301 -1.115,-2.23l0,-0.046l-0.882,-0c-0.124,0.371 -0.403,0.859 -0.836,1.463c-0.434,0.604 -1.115,1.138 -2.044,1.602c-0.929,0.465 -2.198,0.697 -3.808,0.697Zm1.021,-4.737c1.642,-0 2.981,-0.457 4.018,-1.371c1.037,-0.913 1.556,-2.128 1.556,-3.646l-0,-0.464l-5.899,-0c-1.083,-0 -1.935,0.232 -2.554,0.697c-0.619,0.464 -0.929,1.114 -0.929,1.95c-0,0.836 0.325,1.518 0.975,2.044c0.651,0.526 1.595,0.79 2.833,0.79Z" style="fill:#128191;fill-rule:nonzero;"/><rect x="248.129" y="240.656" width="5.852" height="32.512" style="fill:#128191;fill-rule:nonzero;"/><path d="M268.526,273.168l0,-32.512l20.901,0l-0,5.573l-14.77,0l-0,7.757l13.469,-0l0,5.573l-13.469,0l-0,8.035l15.048,0l0,5.574l-21.179,-0Z" style="fill:#128191;fill-rule:nonzero;"/><path d="M292.658,273.168l0,-23.037l5.759,-0l0,3.019l0.837,-0c0.371,-0.805 1.068,-1.572 2.09,-2.299c1.021,-0.728 2.57,-1.092 4.644,-1.092c1.796,0 3.367,0.411 4.714,1.231c1.347,0.821 2.392,1.951 3.135,3.391c0.743,1.439 1.115,3.119 1.115,5.039l0,13.748l-5.852,-0l-0,-13.284c-0,-1.734 -0.426,-3.034 -1.277,-3.901c-0.852,-0.867 -2.067,-1.301 -3.646,-1.301c-1.796,0 -3.19,0.597 -4.18,1.789c-0.991,1.192 -1.487,2.856 -1.487,4.993l0,11.704l-5.852,-0Z" style="fill:#128191;fill-rule:nonzero;"/><path d="M318.37,261.742l-0,-0.743c-0,-2.415 0.479,-4.482 1.439,-6.2c0.96,-1.719 2.237,-3.035 3.832,-3.948c1.595,-0.914 3.336,-1.37 5.225,-1.37c2.106,-0 3.7,0.371 4.784,1.114c1.084,0.743 1.873,1.518 2.369,2.323l0.836,-0l-0,-2.787l5.759,-0l-0,27.124c-0,1.579 -0.464,2.841 -1.393,3.785c-0.929,0.945 -2.168,1.417 -3.716,1.417l-15.42,-0l0,-5.109l13.376,-0c0.867,-0 1.301,-0.465 1.301,-1.394l-0,-5.991l-0.836,-0c-0.31,0.495 -0.743,0.999 -1.301,1.509c-0.557,0.511 -1.3,0.937 -2.229,1.278c-0.929,0.34 -2.106,0.511 -3.53,0.511c-1.889,-0 -3.63,-0.457 -5.225,-1.371c-1.595,-0.913 -2.872,-2.229 -3.832,-3.947c-0.96,-1.719 -1.439,-3.786 -1.439,-6.201Zm12.168,6.41c1.796,-0 3.298,-0.573 4.505,-1.719c1.208,-1.145 1.812,-2.756 1.812,-4.83l-0,-0.465c-0,-2.105 -0.596,-3.723 -1.788,-4.853c-1.192,-1.13 -2.702,-1.695 -4.529,-1.695c-1.796,-0 -3.297,0.565 -4.505,1.695c-1.208,1.13 -1.811,2.748 -1.811,4.853l-0,0.465c-0,2.074 0.603,3.685 1.811,4.83c1.208,1.146 2.709,1.719 4.505,1.719Z" style="fill:#128191;fill-rule:nonzero;"/><path d="M347.332,273.168l-0,-23.037l5.852,-0l0,23.037l-5.852,-0Zm2.926,-25.731c-1.053,0 -1.943,-0.341 -2.671,-1.022c-0.727,-0.681 -1.091,-1.579 -1.091,-2.694c-0,-1.114 0.364,-2.012 1.091,-2.693c0.728,-0.682 1.618,-1.022 2.671,-1.022c1.084,-0 1.982,0.34 2.694,1.022c0.712,0.681 1.068,1.579 1.068,2.693c0,1.115 -0.356,2.013 -1.068,2.694c-0.712,0.681 -1.61,1.022 -2.694,1.022Z" style="fill:#128191;fill-rule:nonzero;"/><path d="M357.902,273.168l0,-23.037l5.759,-0l0,3.019l0.836,-0c0.372,-0.805 1.069,-1.572 2.09,-2.299c1.022,-0.728 2.57,-1.092 4.645,-1.092c1.796,0 3.367,0.411 4.714,1.231c1.347,0.821 2.392,1.951 3.135,3.391c0.743,1.439 1.115,3.119 1.115,5.039l-0,13.748l-5.852,-0l-0,-13.284c-0,-1.734 -0.426,-3.034 -1.278,-3.901c-0.851,-0.867 -2.066,-1.301 -3.646,-1.301c-1.795,0 -3.189,0.597 -4.18,1.789c-0.99,1.192 -1.486,2.856 -1.486,4.993l0,11.704l-5.852,-0Z" style="fill:#128191;fill-rule:nonzero;"/><path d="M395.225,273.818c-2.292,-0 -4.312,-0.488 -6.062,-1.463c-1.749,-0.975 -3.111,-2.353 -4.087,-4.134c-0.975,-1.78 -1.463,-3.878 -1.463,-6.293l0,-0.557c0,-2.416 0.48,-4.513 1.44,-6.294c0.96,-1.78 2.307,-3.158 4.041,-4.133c1.734,-0.976 3.746,-1.463 6.038,-1.463c2.26,-0 4.226,0.503 5.898,1.509c1.672,1.006 2.973,2.4 3.902,4.18c0.929,1.781 1.393,3.847 1.393,6.201l0,1.997l-16.767,-0c0.062,1.579 0.651,2.864 1.765,3.855c1.115,0.991 2.477,1.486 4.087,1.486c1.641,-0 2.849,-0.356 3.623,-1.068c0.774,-0.712 1.363,-1.502 1.765,-2.369l4.784,2.508c-0.434,0.805 -1.061,1.68 -1.881,2.624c-0.821,0.945 -1.912,1.75 -3.275,2.415c-1.362,0.666 -3.096,0.999 -5.201,0.999Zm-5.62,-14.816l10.775,-0c-0.124,-1.332 -0.658,-2.4 -1.602,-3.205c-0.945,-0.805 -2.176,-1.207 -3.693,-1.207c-1.579,-0 -2.833,0.402 -3.762,1.207c-0.929,0.805 -1.502,1.873 -1.718,3.205Z" style="fill:#128191;fill-rule:nonzero;"/><path d="M420.239,273.818c-2.291,-0 -4.311,-0.488 -6.061,-1.463c-1.749,-0.975 -3.112,-2.353 -4.087,-4.134c-0.975,-1.78 -1.463,-3.878 -1.463,-6.293l-0,-0.557c-0,-2.416 0.48,-4.513 1.44,-6.294c0.96,-1.78 2.306,-3.158 4.04,-4.133c1.734,-0.976 3.747,-1.463 6.038,-1.463c2.261,-0 4.227,0.503 5.899,1.509c1.672,1.006 2.972,2.4 3.901,4.18c0.929,1.781 1.394,3.847 1.394,6.201l-0,1.997l-16.767,-0c0.062,1.579 0.65,2.864 1.765,3.855c1.114,0.991 2.477,1.486 4.087,1.486c1.641,-0 2.849,-0.356 3.623,-1.068c0.774,-0.712 1.362,-1.502 1.765,-2.369l4.783,2.508c-0.433,0.805 -1.06,1.68 -1.881,2.624c-0.82,0.945 -1.912,1.75 -3.274,2.415c-1.362,0.666 -3.096,0.999 -5.202,0.999Zm-5.62,-14.816l10.776,-0c-0.124,-1.332 -0.658,-2.4 -1.603,-3.205c-0.944,-0.805 -2.175,-1.207 -3.692,-1.207c-1.579,-0 -2.833,0.402 -3.762,1.207c-0.929,0.805 -1.502,1.873 -1.719,3.205Z" style="fill:#128191;fill-rule:nonzero;"/><path d="M434.757,273.168l0,-23.037l5.759,-0l0,2.601l0.836,-0c0.341,-0.929 0.906,-1.61 1.696,-2.044c0.789,-0.433 1.71,-0.65 2.763,-0.65l2.787,-0l-0,5.202l-2.88,-0c-1.486,-0 -2.709,0.395 -3.669,1.184c-0.96,0.79 -1.44,2.005 -1.44,3.646l0,13.098l-5.852,-0Z" style="fill:#128191;fill-rule:nonzero;"/><path d="M451.365,273.168l0,-23.037l5.852,-0l0,23.037l-5.852,-0Zm2.926,-25.731c-1.053,0 -1.943,-0.341 -2.67,-1.022c-0.728,-0.681 -1.092,-1.579 -1.092,-2.694c0,-1.114 0.364,-2.012 1.092,-2.693c0.727,-0.682 1.617,-1.022 2.67,-1.022c1.084,-0 1.982,0.34 2.694,1.022c0.712,0.681 1.068,1.579 1.068,2.693c0,1.115 -0.356,2.013 -1.068,2.694c-0.712,0.681 -1.61,1.022 -2.694,1.022Z" style="fill:#128191;fill-rule:nonzero;"/><path d="M461.935,273.168l0,-23.037l5.759,-0l0,3.019l0.836,-0c0.372,-0.805 1.069,-1.572 2.09,-2.299c1.022,-0.728 2.57,-1.092 4.645,-1.092c1.796,0 3.367,0.411 4.714,1.231c1.347,0.821 2.392,1.951 3.135,3.391c0.743,1.439 1.115,3.119 1.115,5.039l-0,13.748l-5.852,-0l-0,-13.284c-0,-1.734 -0.426,-3.034 -1.277,-3.901c-0.852,-0.867 -2.067,-1.301 -3.646,-1.301c-1.796,0 -3.19,0.597 -4.18,1.789c-0.991,1.192 -1.487,2.856 -1.487,4.993l0,11.704l-5.852,-0Z" style="fill:#128191;fill-rule:nonzero;"/><path d="M487.646,261.742l0,-0.743c0,-2.415 0.48,-4.482 1.44,-6.2c0.96,-1.719 2.237,-3.035 3.832,-3.948c1.595,-0.914 3.336,-1.37 5.225,-1.37c2.106,-0 3.7,0.371 4.784,1.114c1.084,0.743 1.873,1.518 2.369,2.323l0.836,-0l-0,-2.787l5.759,-0l-0,27.124c-0,1.579 -0.465,2.841 -1.393,3.785c-0.929,0.945 -2.168,1.417 -3.716,1.417l-15.42,-0l0,-5.109l13.376,-0c0.867,-0 1.301,-0.465 1.301,-1.394l-0,-5.991l-0.836,-0c-0.31,0.495 -0.743,0.999 -1.301,1.509c-0.557,0.511 -1.3,0.937 -2.229,1.278c-0.929,0.34 -2.106,0.511 -3.53,0.511c-1.889,-0 -3.63,-0.457 -5.225,-1.371c-1.595,-0.913 -2.872,-2.229 -3.832,-3.947c-0.96,-1.719 -1.44,-3.786 -1.44,-6.201Zm12.169,6.41c1.796,-0 3.298,-0.573 4.505,-1.719c1.208,-1.145 1.812,-2.756 1.812,-4.83l-0,-0.465c-0,-2.105 -0.596,-3.723 -1.788,-4.853c-1.193,-1.13 -2.702,-1.695 -4.529,-1.695c-1.796,-0 -3.298,0.565 -4.505,1.695c-1.208,1.13 -1.811,2.748 -1.811,4.853l-0,0.465c-0,2.074 0.603,3.685 1.811,4.83c1.207,1.146 2.709,1.719 4.505,1.719Z" style="fill:#128191;fill-rule:nonzero;"/><path d="M538.79,273.818c-4.025,-0 -7.214,-1.122 -9.567,-3.367c-2.354,-2.245 -3.53,-5.458 -3.53,-9.638l-0,-7.803c-0,-4.18 1.176,-7.392 3.53,-9.637c2.353,-2.245 5.542,-3.367 9.567,-3.367c3.995,-0 7.083,1.091 9.266,3.274c2.183,2.183 3.274,5.179 3.274,8.987l0,0.279l-6.037,0l-0,-0.464c-0,-1.92 -0.535,-3.499 -1.603,-4.738c-1.068,-1.238 -2.701,-1.858 -4.9,-1.858c-2.167,0 -3.87,0.666 -5.109,1.997c-1.238,1.332 -1.858,3.143 -1.858,5.435l0,7.988c0,2.26 0.62,4.064 1.858,5.411c1.239,1.347 2.942,2.02 5.109,2.02c2.199,0 3.832,-0.627 4.9,-1.881c1.068,-1.254 1.603,-2.825 1.603,-4.714l-0,-0.836l6.037,0l0,0.65c0,3.809 -1.091,6.805 -3.274,8.988c-2.183,2.182 -5.271,3.274 -9.266,3.274Z" style="fill:#128191;fill-rule:nonzero;"/><path d="M565.709,273.818c-2.291,-0 -4.35,-0.464 -6.177,-1.393c-1.827,-0.929 -3.267,-2.276 -4.32,-4.041c-1.052,-1.765 -1.579,-3.886 -1.579,-6.363l0,-0.743c0,-2.477 0.527,-4.598 1.579,-6.363c1.053,-1.765 2.493,-3.112 4.32,-4.041c1.827,-0.929 3.886,-1.393 6.177,-1.393c2.291,-0 4.35,0.464 6.177,1.393c1.827,0.929 3.267,2.276 4.32,4.041c1.052,1.765 1.579,3.886 1.579,6.363l-0,0.743c-0,2.477 -0.527,4.598 -1.579,6.363c-1.053,1.765 -2.493,3.112 -4.32,4.041c-1.827,0.929 -3.886,1.393 -6.177,1.393Zm0,-5.202c1.796,0 3.282,-0.58 4.459,-1.742c1.176,-1.161 1.765,-2.825 1.765,-4.992l-0,-0.465c-0,-2.167 -0.581,-3.832 -1.742,-4.993c-1.161,-1.161 -2.655,-1.742 -4.482,-1.742c-1.796,0 -3.282,0.581 -4.459,1.742c-1.176,1.161 -1.765,2.826 -1.765,4.993l0,0.465c0,2.167 0.589,3.831 1.765,4.992c1.177,1.162 2.663,1.742 4.459,1.742Z" style="fill:#128191;fill-rule:nonzero;"/><path d="M581.388,273.168l0,-23.037l5.759,-0l0,3.019l0.836,-0c0.372,-0.805 1.069,-1.572 2.09,-2.299c1.022,-0.728 2.57,-1.092 4.645,-1.092c1.796,0 3.367,0.411 4.714,1.231c1.347,0.821 2.392,1.951 3.135,3.391c0.743,1.439 1.115,3.119 1.115,5.039l-0,13.748l-5.852,-0l-0,-13.284c-0,-1.734 -0.426,-3.034 -1.277,-3.901c-0.852,-0.867 -2.067,-1.301 -3.646,-1.301c-1.796,0 -3.19,0.597 -4.18,1.789c-0.991,1.192 -1.487,2.856 -1.487,4.993l0,11.704l-5.852,-0Z" style="fill:#128191;fill-rule:nonzero;"/><path d="M617.782,273.818c-3.004,-0 -5.465,-0.65 -7.385,-1.951c-1.92,-1.3 -3.081,-3.158 -3.483,-5.573l5.387,-1.394c0.217,1.084 0.581,1.936 1.092,2.555c0.511,0.619 1.145,1.06 1.904,1.324c0.759,0.263 1.587,0.394 2.485,0.394c1.362,0 2.369,-0.24 3.019,-0.719c0.65,-0.48 0.975,-1.076 0.975,-1.789c0,-0.712 -0.31,-1.261 -0.929,-1.648c-0.619,-0.387 -1.61,-0.705 -2.972,-0.953l-1.301,-0.232c-1.61,-0.309 -3.081,-0.735 -4.412,-1.277c-1.332,-0.542 -2.4,-1.293 -3.205,-2.253c-0.805,-0.959 -1.207,-2.198 -1.207,-3.715c-0,-2.292 0.836,-4.049 2.508,-5.272c1.672,-1.223 3.87,-1.834 6.595,-1.834c2.57,-0 4.706,0.572 6.409,1.718c1.703,1.146 2.818,2.647 3.344,4.505l-5.434,1.672c-0.247,-1.176 -0.751,-2.012 -1.509,-2.508c-0.759,-0.495 -1.695,-0.743 -2.81,-0.743c-1.115,0 -1.966,0.194 -2.555,0.581c-0.588,0.387 -0.882,0.921 -0.882,1.602c-0,0.743 0.31,1.293 0.929,1.649c0.619,0.356 1.455,0.627 2.508,0.813l1.3,0.232c1.734,0.31 3.306,0.72 4.715,1.231c1.408,0.511 2.523,1.238 3.344,2.183c0.82,0.944 1.23,2.221 1.23,3.831c0,2.416 -0.874,4.281 -2.624,5.597c-1.749,1.316 -4.095,1.974 -7.036,1.974Z" style="fill:#128191;fill-rule:nonzero;"/><path d="M639.545,273.539c-1.796,0 -3.367,-0.41 -4.714,-1.231c-1.347,-0.82 -2.392,-1.958 -3.135,-3.413c-0.743,-1.456 -1.115,-3.128 -1.115,-5.016l0,-13.748l5.852,-0l0,13.283c0,1.734 0.426,3.035 1.278,3.902c0.851,0.867 2.066,1.3 3.646,1.3c1.795,0 3.189,-0.596 4.18,-1.788c0.99,-1.192 1.486,-2.856 1.486,-4.993l-0,-11.704l5.852,-0l0,23.037l-5.759,-0l-0,-3.019l-0.836,-0c-0.372,0.774 -1.068,1.532 -2.09,2.276c-1.022,0.743 -2.57,1.114 -4.645,1.114Z" style="fill:#128191;fill-rule:nonzero;"/><rect x="657.593" y="240.656" width="5.852" height="32.512" style="fill:#128191;fill-rule:nonzero;"/><path d="M676.988,273.168c-1.518,-0 -2.748,-0.472 -3.693,-1.417c-0.944,-0.944 -1.416,-2.206 -1.416,-3.785l-0,-13.005l-5.76,0l0,-4.83l5.76,-0l-0,-7.153l5.852,0l-0,7.153l6.316,-0l0,4.83l-6.316,0l-0,11.983c-0,0.929 0.433,1.393 1.3,1.393l4.459,0l0,4.831l-6.502,-0Z" style="fill:#128191;fill-rule:nonzero;"/><path d="M694.71,273.818c-1.641,-0 -3.111,-0.286 -4.412,-0.859c-1.3,-0.573 -2.33,-1.409 -3.089,-2.508c-0.758,-1.1 -1.137,-2.439 -1.137,-4.018c-0,-1.579 0.379,-2.903 1.137,-3.971c0.759,-1.068 1.812,-1.873 3.159,-2.415c1.347,-0.542 2.887,-0.813 4.621,-0.813l6.317,0l-0,-1.3c-0,-1.084 -0.341,-1.974 -1.022,-2.671c-0.681,-0.697 -1.765,-1.045 -3.251,-1.045c-1.456,0 -2.539,0.333 -3.252,0.999c-0.712,0.665 -1.176,1.525 -1.393,2.577l-5.388,-1.811c0.372,-1.177 0.968,-2.253 1.789,-3.228c0.82,-0.975 1.919,-1.765 3.297,-2.369c1.378,-0.603 3.058,-0.905 5.039,-0.905c3.035,-0 5.435,0.758 7.2,2.275c1.764,1.518 2.647,3.716 2.647,6.596l-0,8.592c-0,0.929 0.433,1.393 1.3,1.393l1.858,0l0,4.831l-3.901,-0c-1.146,-0 -2.09,-0.279 -2.833,-0.836c-0.744,-0.558 -1.115,-1.301 -1.115,-2.23l-0,-0.046l-0.883,-0c-0.123,0.371 -0.402,0.859 -0.836,1.463c-0.433,0.604 -1.114,1.138 -2.043,1.602c-0.929,0.465 -2.199,0.697 -3.809,0.697Zm1.022,-4.737c1.641,-0 2.98,-0.457 4.018,-1.371c1.037,-0.913 1.556,-2.128 1.556,-3.646l-0,-0.464l-5.899,-0c-1.084,-0 -1.935,0.232 -2.554,0.697c-0.62,0.464 -0.929,1.114 -0.929,1.95c-0,0.836 0.325,1.518 0.975,2.044c0.65,0.526 1.595,0.79 2.833,0.79Z" style="fill:#128191;fill-rule:nonzero;"/><path d="M712.619,273.168l-0,-23.037l5.759,-0l-0,3.019l0.836,-0c0.372,-0.805 1.068,-1.572 2.09,-2.299c1.022,-0.728 2.57,-1.092 4.645,-1.092c1.795,0 3.367,0.411 4.714,1.231c1.347,0.821 2.392,1.951 3.135,3.391c0.743,1.439 1.115,3.119 1.115,5.039l-0,13.748l-5.853,-0l0,-13.284c0,-1.734 -0.425,-3.034 -1.277,-3.901c-0.851,-0.867 -2.067,-1.301 -3.646,-1.301c-1.796,0 -3.189,0.597 -4.18,1.789c-0.991,1.192 -1.486,2.856 -1.486,4.993l-0,11.704l-5.852,-0Z" style="fill:#128191;fill-rule:nonzero;"/><path d="M747.619,273.168c-1.517,-0 -2.748,-0.472 -3.692,-1.417c-0.945,-0.944 -1.417,-2.206 -1.417,-3.785l0,-13.005l-5.759,0l-0,-4.83l5.759,-0l0,-7.153l5.852,0l0,7.153l6.317,-0l-0,4.83l-6.317,0l0,11.983c0,0.929 0.434,1.393 1.301,1.393l4.458,0l0,4.831l-6.502,-0Z" style="fill:#128191;fill-rule:nonzero;"/><path d="M767.757,273.818c-3.004,-0 -5.465,-0.65 -7.385,-1.951c-1.92,-1.3 -3.081,-3.158 -3.483,-5.573l5.387,-1.394c0.217,1.084 0.581,1.936 1.092,2.555c0.511,0.619 1.145,1.06 1.904,1.324c0.759,0.263 1.587,0.394 2.485,0.394c1.362,0 2.369,-0.24 3.019,-0.719c0.65,-0.48 0.975,-1.076 0.975,-1.789c0,-0.712 -0.309,-1.261 -0.929,-1.648c-0.619,-0.387 -1.61,-0.705 -2.972,-0.953l-1.301,-0.232c-1.61,-0.309 -3.081,-0.735 -4.412,-1.277c-1.331,-0.542 -2.4,-1.293 -3.205,-2.253c-0.805,-0.959 -1.207,-2.198 -1.207,-3.715c-0,-2.292 0.836,-4.049 2.508,-5.272c1.672,-1.223 3.87,-1.834 6.595,-1.834c2.57,-0 4.706,0.572 6.409,1.718c1.703,1.146 2.818,2.647 3.345,4.505l-5.435,1.672c-0.247,-1.176 -0.75,-2.012 -1.509,-2.508c-0.759,-0.495 -1.695,-0.743 -2.81,-0.743c-1.115,0 -1.966,0.194 -2.554,0.581c-0.589,0.387 -0.883,0.921 -0.883,1.602c0,0.743 0.31,1.293 0.929,1.649c0.619,0.356 1.455,0.627 2.508,0.813l1.3,0.232c1.734,0.31 3.306,0.72 4.715,1.231c1.409,0.511 2.523,1.238 3.344,2.183c0.82,0.944 1.231,2.221 1.231,3.831c-0,2.416 -0.875,4.281 -2.625,5.597c-1.749,1.316 -4.095,1.974 -7.036,1.974Z" style="fill:#128191;fill-rule:nonzero;"/></g></svg>