<?xml version="1.0" encoding="UTF-8" standalone="no"?>
<!DOCTYPE svg PUBLIC "-//W3C//DTD SVG 1.1//EN" "http://www.w3.org/Graphics/SVG/1.1/DTD/svg11.dtd">
<svg width="100%" height="100%" viewBox="0 0 838 285" version="1.1" xmlns="http://www.w3.org/2000/svg" xmlns:xlink="http://www.w3.org/1999/xlink" xml:space="preserve" xmlns:serif="http://www.serif.com/" style="fill-rule:evenodd;clip-rule:evenodd;stroke-linecap:round;stroke-linejoin:round;stroke-miterlimit:1.5;">
    <g transform="matrix(1,0,0,1,-57440.4,-723.902)">
        <g transform="matrix(1,0,0,1,55269.1,0)">
            <g transform="matrix(0.449003,0,0,0.449003,1651,550.105)">
                <g transform="matrix(0.936823,0,0,0.936823,73.2048,24.7473)">
                    <g transform="matrix(1,0,0,1,-27751.4,-134.222)">
                        <path d="M30767.3,525.936L30619.4,525.936C30474.1,525.936 30356.3,643.767 30356.3,789.119C30356.3,934.471 30474.1,1052.3 30619.4,1052.3L30767.3,1052.3L30767.3,974.789L30619.4,974.789L30619.4,974.773C30516.9,974.773 30433.8,891.653 30433.8,789.119C30433.8,686.585 30516.9,603.465 30619.4,603.465L30619.4,603.448L30767.3,603.448L30767.3,525.936Z" style="fill:white;"/>
                    </g>
                    <g transform="matrix(1,0,0,1,-27751.4,-134.222)">
                        <path d="M29723.7,897.458C29826.3,897.458 29909.5,814.29 29909.5,711.697C29909.5,609.104 29826.3,525.936 29723.7,525.936L29723.7,606.456C29781.8,606.456 29828.9,653.574 29828.9,711.697C29828.9,769.82 29781.8,816.938 29723.7,816.938L29723.7,897.458ZM29586,1052.3L29586,897.458L29723.7,897.458L29723.7,817.131L29586,817.131L29586,525.936L29505.7,525.936L29505.7,1052.3L29586,1052.3ZM29723.7,525.936L29617.2,525.936L29617.2,606.263L29723.7,606.263L29723.7,525.936Z" style="fill:white;"/>
                    </g>
                    <g transform="matrix(1,0,0,1,-27751.4,-134.222)">
                        <path d="M30045.5,971.975L30045.5,829.282L30296.3,829.282L30296.3,748.955L30045.5,748.955L30045.5,606.263L30356.3,606.263L30356.3,525.936L29965.2,525.936L29965.2,1052.3L30356.3,1052.3L30356.3,971.975L30045.5,971.975Z" style="fill:white;"/>
                    </g>
                    <g transform="matrix(1,0,0,1,-27751.4,-134.222)">
                        <path d="M28963.3,525.936L28910.1,525.936L28910.1,1052.3L28963.3,1052.3L28963.3,525.936ZM29437,525.936L28963.3,525.936L28963.3,579.134L29383.8,579.134L29383.8,999.104L29060.4,999.104L29060.4,629.629L29007.2,629.629L29007.2,1052.3L29437,1052.3L29437,525.936ZM29060.4,958.203L29341.1,958.203L29341.1,629.629L29060.4,629.629L29060.4,682.827L29287.9,682.827L29287.9,722.705L29100.3,722.705L29100.3,867.564L29287.9,867.564L29287.9,905.005L29060.4,905.005L29060.4,958.203ZM29287.9,775.903L29150.4,775.903L29150.4,814.366L29287.9,814.366L29287.9,775.903Z" style="fill:white;"/>
                    </g>
                    <g transform="matrix(4.16667,0,0,4.16667,1020.42,856.466)">
                        <g transform="matrix(26.5,0,0,26.5,33.1934,44.319)">
                            <path d="M0.066,-0L0.066,-0.7L0.354,-0.7C0.398,-0.7 0.437,-0.691 0.471,-0.674C0.504,-0.656 0.531,-0.631 0.55,-0.599C0.568,-0.567 0.578,-0.529 0.578,-0.485L0.578,-0.471C0.578,-0.428 0.568,-0.39 0.549,-0.358C0.529,-0.325 0.502,-0.3 0.469,-0.283C0.435,-0.265 0.397,-0.256 0.354,-0.256L0.198,-0.256L0.198,-0L0.066,-0ZM0.198,-0.376L0.341,-0.376C0.372,-0.376 0.398,-0.385 0.417,-0.402C0.436,-0.419 0.446,-0.443 0.446,-0.473L0.446,-0.483C0.446,-0.513 0.436,-0.537 0.417,-0.554C0.398,-0.571 0.372,-0.58 0.341,-0.58L0.198,-0.58L0.198,-0.376Z" style="fill:white;fill-rule:nonzero;"/>
                        </g>
                        <g transform="matrix(26.5,0,0,26.5,48.1813,44.319)">
                            <path d="M0.07,-0L0.07,-0.496L0.194,-0.496L0.194,-0.44L0.212,-0.44C0.219,-0.46 0.232,-0.475 0.249,-0.484C0.266,-0.493 0.285,-0.498 0.308,-0.498L0.368,-0.498L0.368,-0.386L0.306,-0.386C0.274,-0.386 0.248,-0.378 0.227,-0.361C0.206,-0.343 0.196,-0.317 0.196,-0.282L0.196,-0L0.07,-0Z" style="fill:white;fill-rule:nonzero;"/>
                        </g>
                        <g transform="matrix(26.5,0,0,26.5,57.1802,44.319)">
                            <path d="M0.306,0.014C0.257,0.014 0.212,0.004 0.173,-0.016C0.134,-0.036 0.103,-0.065 0.08,-0.103C0.057,-0.141 0.046,-0.187 0.046,-0.24L0.046,-0.256C0.046,-0.309 0.057,-0.355 0.08,-0.393C0.103,-0.431 0.134,-0.46 0.173,-0.48C0.212,-0.5 0.257,-0.51 0.306,-0.51C0.355,-0.51 0.4,-0.5 0.439,-0.48C0.478,-0.46 0.509,-0.431 0.532,-0.393C0.555,-0.355 0.566,-0.309 0.566,-0.256L0.566,-0.24C0.566,-0.187 0.555,-0.141 0.532,-0.103C0.509,-0.065 0.478,-0.036 0.439,-0.016C0.4,0.004 0.355,0.014 0.306,0.014ZM0.306,-0.098C0.345,-0.098 0.377,-0.111 0.402,-0.136C0.427,-0.161 0.44,-0.196 0.44,-0.243L0.44,-0.253C0.44,-0.3 0.428,-0.335 0.403,-0.361C0.378,-0.386 0.345,-0.398 0.306,-0.398C0.267,-0.398 0.235,-0.386 0.21,-0.361C0.185,-0.335 0.172,-0.3 0.172,-0.253L0.172,-0.243C0.172,-0.196 0.185,-0.161 0.21,-0.136C0.235,-0.111 0.267,-0.098 0.306,-0.098Z" style="fill:white;fill-rule:nonzero;"/>
                        </g>
                        <g transform="matrix(26.5,0,0,26.5,71.9561,44.319)">
                            <path d="M0.152,-0L0.152,-0.392L0.026,-0.392L0.026,-0.496L0.152,-0.496L0.152,-0.588C0.152,-0.622 0.162,-0.649 0.183,-0.67C0.203,-0.69 0.229,-0.7 0.262,-0.7L0.392,-0.7L0.392,-0.596L0.306,-0.596C0.287,-0.596 0.278,-0.586 0.278,-0.566L0.278,-0.496L0.408,-0.496L0.408,-0.392L0.278,-0.392L0.278,-0L0.152,-0Z" style="fill:white;fill-rule:nonzero;"/>
                        </g>
                        <g transform="matrix(26.5,0,0,26.5,82.068,44.319)">
                            <path d="M0.296,0.014C0.247,0.014 0.203,0.003 0.166,-0.018C0.128,-0.039 0.098,-0.068 0.078,-0.107C0.056,-0.145 0.046,-0.19 0.046,-0.242L0.046,-0.254C0.046,-0.306 0.056,-0.351 0.077,-0.39C0.098,-0.428 0.127,-0.458 0.164,-0.479C0.201,-0.5 0.245,-0.51 0.294,-0.51C0.343,-0.51 0.385,-0.499 0.421,-0.478C0.457,-0.456 0.485,-0.426 0.505,-0.388C0.525,-0.349 0.535,-0.305 0.535,-0.254L0.535,-0.211L0.174,-0.211C0.175,-0.177 0.188,-0.149 0.212,-0.128C0.236,-0.107 0.265,-0.096 0.3,-0.096C0.335,-0.096 0.361,-0.104 0.378,-0.119C0.395,-0.134 0.407,-0.151 0.416,-0.17L0.519,-0.116C0.51,-0.099 0.496,-0.08 0.479,-0.06C0.461,-0.039 0.437,-0.022 0.408,-0.008C0.379,0.007 0.341,0.014 0.296,0.014ZM0.175,-0.305L0.407,-0.305C0.404,-0.334 0.393,-0.357 0.373,-0.374C0.352,-0.391 0.326,-0.4 0.293,-0.4C0.259,-0.4 0.232,-0.391 0.212,-0.374C0.192,-0.357 0.18,-0.334 0.175,-0.305Z" style="fill:white;fill-rule:nonzero;"/>
                        </g>
                        <g transform="matrix(26.5,0,0,26.5,96.3404,44.319)">
                            <path d="M0.276,0.014C0.211,0.014 0.158,0 0.117,-0.028C0.076,-0.056 0.051,-0.096 0.042,-0.148L0.158,-0.178C0.163,-0.155 0.171,-0.136 0.182,-0.123C0.193,-0.11 0.206,-0.1 0.223,-0.095C0.239,-0.089 0.257,-0.086 0.276,-0.086C0.305,-0.086 0.327,-0.091 0.341,-0.102C0.355,-0.112 0.362,-0.125 0.362,-0.14C0.362,-0.155 0.355,-0.167 0.342,-0.176C0.329,-0.184 0.307,-0.191 0.278,-0.196L0.25,-0.201C0.215,-0.208 0.184,-0.217 0.155,-0.229C0.126,-0.24 0.103,-0.256 0.086,-0.277C0.069,-0.298 0.06,-0.324 0.06,-0.357C0.06,-0.406 0.078,-0.444 0.114,-0.471C0.15,-0.497 0.197,-0.51 0.256,-0.51C0.311,-0.51 0.357,-0.498 0.394,-0.473C0.431,-0.448 0.455,-0.416 0.466,-0.376L0.349,-0.34C0.344,-0.365 0.333,-0.383 0.317,-0.394C0.3,-0.405 0.28,-0.41 0.256,-0.41C0.232,-0.41 0.214,-0.406 0.201,-0.398C0.188,-0.389 0.182,-0.378 0.182,-0.363C0.182,-0.347 0.189,-0.335 0.202,-0.328C0.215,-0.32 0.233,-0.314 0.256,-0.31L0.284,-0.305C0.321,-0.298 0.355,-0.29 0.386,-0.279C0.416,-0.268 0.44,-0.252 0.458,-0.232C0.475,-0.211 0.484,-0.184 0.484,-0.149C0.484,-0.097 0.465,-0.057 0.428,-0.029C0.39,-0 0.339,0.014 0.276,0.014Z" style="fill:white;fill-rule:nonzero;"/>
                        </g>
                        <g transform="matrix(26.5,0,0,26.5,109.208,44.319)">
                            <path d="M0.276,0.014C0.211,0.014 0.158,0 0.117,-0.028C0.076,-0.056 0.051,-0.096 0.042,-0.148L0.158,-0.178C0.163,-0.155 0.171,-0.136 0.182,-0.123C0.193,-0.11 0.206,-0.1 0.223,-0.095C0.239,-0.089 0.257,-0.086 0.276,-0.086C0.305,-0.086 0.327,-0.091 0.341,-0.102C0.355,-0.112 0.362,-0.125 0.362,-0.14C0.362,-0.155 0.355,-0.167 0.342,-0.176C0.329,-0.184 0.307,-0.191 0.278,-0.196L0.25,-0.201C0.215,-0.208 0.184,-0.217 0.155,-0.229C0.126,-0.24 0.103,-0.256 0.086,-0.277C0.069,-0.298 0.06,-0.324 0.06,-0.357C0.06,-0.406 0.078,-0.444 0.114,-0.471C0.15,-0.497 0.197,-0.51 0.256,-0.51C0.311,-0.51 0.357,-0.498 0.394,-0.473C0.431,-0.448 0.455,-0.416 0.466,-0.376L0.349,-0.34C0.344,-0.365 0.333,-0.383 0.317,-0.394C0.3,-0.405 0.28,-0.41 0.256,-0.41C0.232,-0.41 0.214,-0.406 0.201,-0.398C0.188,-0.389 0.182,-0.378 0.182,-0.363C0.182,-0.347 0.189,-0.335 0.202,-0.328C0.215,-0.32 0.233,-0.314 0.256,-0.31L0.284,-0.305C0.321,-0.298 0.355,-0.29 0.386,-0.279C0.416,-0.268 0.44,-0.252 0.458,-0.232C0.475,-0.211 0.484,-0.184 0.484,-0.149C0.484,-0.097 0.465,-0.057 0.428,-0.029C0.39,-0 0.339,0.014 0.276,0.014Z" style="fill:white;fill-rule:nonzero;"/>
                        </g>
                        <g transform="matrix(26.5,0,0,26.5,122.076,44.319)">
                            <path d="M0.07,-0L0.07,-0.496L0.196,-0.496L0.196,-0L0.07,-0ZM0.133,-0.554C0.11,-0.554 0.091,-0.561 0.076,-0.576C0.06,-0.591 0.052,-0.61 0.052,-0.634C0.052,-0.658 0.06,-0.677 0.076,-0.692C0.091,-0.707 0.11,-0.714 0.133,-0.714C0.156,-0.714 0.176,-0.707 0.191,-0.692C0.206,-0.677 0.214,-0.658 0.214,-0.634C0.214,-0.61 0.206,-0.591 0.191,-0.576C0.176,-0.561 0.156,-0.554 0.133,-0.554Z" style="fill:white;fill-rule:nonzero;"/>
                        </g>
                        <g transform="matrix(26.5,0,0,26.5,128.107,44.319)">
                            <path d="M0.306,0.014C0.257,0.014 0.212,0.004 0.173,-0.016C0.134,-0.036 0.103,-0.065 0.08,-0.103C0.057,-0.141 0.046,-0.187 0.046,-0.24L0.046,-0.256C0.046,-0.309 0.057,-0.355 0.08,-0.393C0.103,-0.431 0.134,-0.46 0.173,-0.48C0.212,-0.5 0.257,-0.51 0.306,-0.51C0.355,-0.51 0.4,-0.5 0.439,-0.48C0.478,-0.46 0.509,-0.431 0.532,-0.393C0.555,-0.355 0.566,-0.309 0.566,-0.256L0.566,-0.24C0.566,-0.187 0.555,-0.141 0.532,-0.103C0.509,-0.065 0.478,-0.036 0.439,-0.016C0.4,0.004 0.355,0.014 0.306,0.014ZM0.306,-0.098C0.345,-0.098 0.377,-0.111 0.402,-0.136C0.427,-0.161 0.44,-0.196 0.44,-0.243L0.44,-0.253C0.44,-0.3 0.428,-0.335 0.403,-0.361C0.378,-0.386 0.345,-0.398 0.306,-0.398C0.267,-0.398 0.235,-0.386 0.21,-0.361C0.185,-0.335 0.172,-0.3 0.172,-0.253L0.172,-0.243C0.172,-0.196 0.185,-0.161 0.21,-0.136C0.235,-0.111 0.267,-0.098 0.306,-0.098Z" style="fill:white;fill-rule:nonzero;"/>
                        </g>
                        <g transform="matrix(26.5,0,0,26.5,143.307,44.319)">
                            <path d="M0.07,-0L0.07,-0.496L0.194,-0.496L0.194,-0.431L0.212,-0.431C0.22,-0.448 0.235,-0.465 0.257,-0.481C0.279,-0.496 0.312,-0.504 0.357,-0.504C0.396,-0.504 0.43,-0.495 0.459,-0.478C0.488,-0.46 0.51,-0.436 0.526,-0.405C0.542,-0.374 0.55,-0.337 0.55,-0.296L0.55,-0L0.424,-0L0.424,-0.286C0.424,-0.323 0.415,-0.351 0.397,-0.37C0.378,-0.389 0.352,-0.398 0.318,-0.398C0.279,-0.398 0.249,-0.385 0.228,-0.36C0.207,-0.334 0.196,-0.298 0.196,-0.252L0.196,-0L0.07,-0Z" style="fill:white;fill-rule:nonzero;"/>
                        </g>
                        <g transform="matrix(26.5,0,0,26.5,158.613,44.319)">
                            <path d="M0.224,0.014C0.189,0.014 0.157,0.008 0.129,-0.005C0.101,-0.017 0.079,-0.035 0.063,-0.059C0.046,-0.082 0.038,-0.111 0.038,-0.145C0.038,-0.179 0.046,-0.208 0.063,-0.231C0.079,-0.254 0.101,-0.271 0.131,-0.283C0.16,-0.294 0.193,-0.3 0.23,-0.3L0.366,-0.3L0.366,-0.328C0.366,-0.351 0.359,-0.371 0.344,-0.386C0.329,-0.401 0.306,-0.408 0.274,-0.408C0.243,-0.408 0.219,-0.401 0.204,-0.387C0.189,-0.372 0.179,-0.354 0.174,-0.331L0.058,-0.37C0.066,-0.395 0.079,-0.419 0.097,-0.44C0.114,-0.46 0.138,-0.478 0.168,-0.491C0.197,-0.503 0.233,-0.51 0.276,-0.51C0.341,-0.51 0.393,-0.494 0.431,-0.461C0.469,-0.428 0.488,-0.381 0.488,-0.319L0.488,-0.134C0.488,-0.114 0.497,-0.104 0.516,-0.104L0.556,-0.104L0.556,-0L0.472,-0C0.447,-0 0.427,-0.006 0.411,-0.018C0.395,-0.03 0.387,-0.046 0.387,-0.066L0.387,-0.067L0.368,-0.067C0.365,-0.059 0.359,-0.049 0.35,-0.036C0.341,-0.023 0.326,-0.011 0.306,-0.001C0.286,0.009 0.259,0.014 0.224,0.014ZM0.246,-0.088C0.281,-0.088 0.31,-0.098 0.333,-0.118C0.355,-0.137 0.366,-0.163 0.366,-0.196L0.366,-0.206L0.239,-0.206C0.216,-0.206 0.197,-0.201 0.184,-0.191C0.171,-0.181 0.164,-0.167 0.164,-0.149C0.164,-0.131 0.171,-0.116 0.185,-0.105C0.199,-0.094 0.219,-0.088 0.246,-0.088Z" style="fill:white;fill-rule:nonzero;"/>
                        </g>
                        <g transform="matrix(26.5,0,0,26.5,172.912,44.319)">
                            <rect x="0.07" y="-0.7" width="0.126" height="0.7" style="fill:white;fill-rule:nonzero;"/>
                        </g>
                        <g transform="matrix(26.5,0,0,26.5,184.656,44.319)">
                            <path d="M0.066,-0L0.066,-0.7L0.516,-0.7L0.516,-0.58L0.198,-0.58L0.198,-0.413L0.488,-0.413L0.488,-0.293L0.198,-0.293L0.198,-0.12L0.522,-0.12L0.522,-0L0.066,-0Z" style="fill:white;fill-rule:nonzero;"/>
                        </g>
                        <g transform="matrix(26.5,0,0,26.5,198.319,44.319)">
                            <path d="M0.07,-0L0.07,-0.496L0.194,-0.496L0.194,-0.431L0.212,-0.431C0.22,-0.448 0.235,-0.465 0.257,-0.481C0.279,-0.496 0.312,-0.504 0.357,-0.504C0.396,-0.504 0.43,-0.495 0.459,-0.478C0.488,-0.46 0.51,-0.436 0.526,-0.405C0.542,-0.374 0.55,-0.337 0.55,-0.296L0.55,-0L0.424,-0L0.424,-0.286C0.424,-0.323 0.415,-0.351 0.397,-0.37C0.378,-0.389 0.352,-0.398 0.318,-0.398C0.279,-0.398 0.249,-0.385 0.228,-0.36C0.207,-0.334 0.196,-0.298 0.196,-0.252L0.196,-0L0.07,-0Z" style="fill:white;fill-rule:nonzero;"/>
                        </g>
                        <g transform="matrix(26.5,0,0,26.5,213.624,44.319)">
                            <path d="M0.046,-0.246L0.046,-0.262C0.046,-0.314 0.056,-0.359 0.077,-0.396C0.098,-0.433 0.125,-0.461 0.16,-0.481C0.194,-0.5 0.231,-0.51 0.272,-0.51C0.317,-0.51 0.352,-0.502 0.375,-0.486C0.398,-0.47 0.415,-0.453 0.426,-0.436L0.444,-0.436L0.444,-0.496L0.568,-0.496L0.568,0.088C0.568,0.122 0.558,0.149 0.538,0.17C0.518,0.19 0.491,0.2 0.458,0.2L0.126,0.2L0.126,0.09L0.414,0.09C0.433,0.09 0.442,0.08 0.442,0.06L0.442,-0.069L0.424,-0.069C0.417,-0.058 0.408,-0.047 0.396,-0.037C0.384,-0.025 0.368,-0.016 0.348,-0.009C0.328,-0.002 0.303,0.002 0.272,0.002C0.231,0.002 0.194,-0.008 0.16,-0.028C0.125,-0.047 0.098,-0.076 0.077,-0.113C0.056,-0.15 0.046,-0.194 0.046,-0.246ZM0.308,-0.108C0.347,-0.108 0.379,-0.12 0.405,-0.145C0.431,-0.17 0.444,-0.204 0.444,-0.249L0.444,-0.259C0.444,-0.304 0.431,-0.339 0.406,-0.364C0.38,-0.388 0.347,-0.4 0.308,-0.4C0.269,-0.4 0.237,-0.388 0.211,-0.364C0.185,-0.339 0.172,-0.304 0.172,-0.259L0.172,-0.249C0.172,-0.204 0.185,-0.17 0.211,-0.145C0.237,-0.12 0.269,-0.108 0.308,-0.108Z" style="fill:white;fill-rule:nonzero;"/>
                        </g>
                        <g transform="matrix(26.5,0,0,26.5,229.513,44.319)">
                            <path d="M0.07,-0L0.07,-0.496L0.196,-0.496L0.196,-0L0.07,-0ZM0.133,-0.554C0.11,-0.554 0.091,-0.561 0.076,-0.576C0.06,-0.591 0.052,-0.61 0.052,-0.634C0.052,-0.658 0.06,-0.677 0.076,-0.692C0.091,-0.707 0.11,-0.714 0.133,-0.714C0.156,-0.714 0.176,-0.707 0.191,-0.692C0.206,-0.677 0.214,-0.658 0.214,-0.634C0.214,-0.61 0.206,-0.591 0.191,-0.576C0.176,-0.561 0.156,-0.554 0.133,-0.554Z" style="fill:white;fill-rule:nonzero;"/>
                        </g>
                        <g transform="matrix(26.5,0,0,26.5,235.544,44.319)">
                            <path d="M0.07,-0L0.07,-0.496L0.194,-0.496L0.194,-0.431L0.212,-0.431C0.22,-0.448 0.235,-0.465 0.257,-0.481C0.279,-0.496 0.312,-0.504 0.357,-0.504C0.396,-0.504 0.43,-0.495 0.459,-0.478C0.488,-0.46 0.51,-0.436 0.526,-0.405C0.542,-0.374 0.55,-0.337 0.55,-0.296L0.55,-0L0.424,-0L0.424,-0.286C0.424,-0.323 0.415,-0.351 0.397,-0.37C0.378,-0.389 0.352,-0.398 0.318,-0.398C0.279,-0.398 0.249,-0.385 0.228,-0.36C0.207,-0.334 0.196,-0.298 0.196,-0.252L0.196,-0L0.07,-0Z" style="fill:white;fill-rule:nonzero;"/>
                        </g>
                        <g transform="matrix(26.5,0,0,26.5,250.85,44.319)">
                            <path d="M0.296,0.014C0.247,0.014 0.203,0.003 0.166,-0.018C0.128,-0.039 0.098,-0.068 0.078,-0.107C0.056,-0.145 0.046,-0.19 0.046,-0.242L0.046,-0.254C0.046,-0.306 0.056,-0.351 0.077,-0.39C0.098,-0.428 0.127,-0.458 0.164,-0.479C0.201,-0.5 0.245,-0.51 0.294,-0.51C0.343,-0.51 0.385,-0.499 0.421,-0.478C0.457,-0.456 0.485,-0.426 0.505,-0.388C0.525,-0.349 0.535,-0.305 0.535,-0.254L0.535,-0.211L0.174,-0.211C0.175,-0.177 0.188,-0.149 0.212,-0.128C0.236,-0.107 0.265,-0.096 0.3,-0.096C0.335,-0.096 0.361,-0.104 0.378,-0.119C0.395,-0.134 0.407,-0.151 0.416,-0.17L0.519,-0.116C0.51,-0.099 0.496,-0.08 0.479,-0.06C0.461,-0.039 0.437,-0.022 0.408,-0.008C0.379,0.007 0.341,0.014 0.296,0.014ZM0.175,-0.305L0.407,-0.305C0.404,-0.334 0.393,-0.357 0.373,-0.374C0.352,-0.391 0.326,-0.4 0.293,-0.4C0.259,-0.4 0.232,-0.391 0.212,-0.374C0.192,-0.357 0.18,-0.334 0.175,-0.305Z" style="fill:white;fill-rule:nonzero;"/>
                        </g>
                        <g transform="matrix(26.5,0,0,26.5,265.123,44.319)">
                            <path d="M0.296,0.014C0.247,0.014 0.203,0.003 0.166,-0.018C0.128,-0.039 0.098,-0.068 0.078,-0.107C0.056,-0.145 0.046,-0.19 0.046,-0.242L0.046,-0.254C0.046,-0.306 0.056,-0.351 0.077,-0.39C0.098,-0.428 0.127,-0.458 0.164,-0.479C0.201,-0.5 0.245,-0.51 0.294,-0.51C0.343,-0.51 0.385,-0.499 0.421,-0.478C0.457,-0.456 0.485,-0.426 0.505,-0.388C0.525,-0.349 0.535,-0.305 0.535,-0.254L0.535,-0.211L0.174,-0.211C0.175,-0.177 0.188,-0.149 0.212,-0.128C0.236,-0.107 0.265,-0.096 0.3,-0.096C0.335,-0.096 0.361,-0.104 0.378,-0.119C0.395,-0.134 0.407,-0.151 0.416,-0.17L0.519,-0.116C0.51,-0.099 0.496,-0.08 0.479,-0.06C0.461,-0.039 0.437,-0.022 0.408,-0.008C0.379,0.007 0.341,0.014 0.296,0.014ZM0.175,-0.305L0.407,-0.305C0.404,-0.334 0.393,-0.357 0.373,-0.374C0.352,-0.391 0.326,-0.4 0.293,-0.4C0.259,-0.4 0.232,-0.391 0.212,-0.374C0.192,-0.357 0.18,-0.334 0.175,-0.305Z" style="fill:white;fill-rule:nonzero;"/>
                        </g>
                        <g transform="matrix(26.5,0,0,26.5,279.395,44.319)">
                            <path d="M0.07,-0L0.07,-0.496L0.194,-0.496L0.194,-0.44L0.212,-0.44C0.219,-0.46 0.232,-0.475 0.249,-0.484C0.266,-0.493 0.285,-0.498 0.308,-0.498L0.368,-0.498L0.368,-0.386L0.306,-0.386C0.274,-0.386 0.248,-0.378 0.227,-0.361C0.206,-0.343 0.196,-0.317 0.196,-0.282L0.196,-0L0.07,-0Z" style="fill:white;fill-rule:nonzero;"/>
                        </g>
                        <g transform="matrix(26.5,0,0,26.5,288.871,44.319)">
                            <path d="M0.07,-0L0.07,-0.496L0.196,-0.496L0.196,-0L0.07,-0ZM0.133,-0.554C0.11,-0.554 0.091,-0.561 0.076,-0.576C0.06,-0.591 0.052,-0.61 0.052,-0.634C0.052,-0.658 0.06,-0.677 0.076,-0.692C0.091,-0.707 0.11,-0.714 0.133,-0.714C0.156,-0.714 0.176,-0.707 0.191,-0.692C0.206,-0.677 0.214,-0.658 0.214,-0.634C0.214,-0.61 0.206,-0.591 0.191,-0.576C0.176,-0.561 0.156,-0.554 0.133,-0.554Z" style="fill:white;fill-rule:nonzero;"/>
                        </g>
                        <g transform="matrix(26.5,0,0,26.5,294.902,44.319)">
                            <path d="M0.07,-0L0.07,-0.496L0.194,-0.496L0.194,-0.431L0.212,-0.431C0.22,-0.448 0.235,-0.465 0.257,-0.481C0.279,-0.496 0.312,-0.504 0.357,-0.504C0.396,-0.504 0.43,-0.495 0.459,-0.478C0.488,-0.46 0.51,-0.436 0.526,-0.405C0.542,-0.374 0.55,-0.337 0.55,-0.296L0.55,-0L0.424,-0L0.424,-0.286C0.424,-0.323 0.415,-0.351 0.397,-0.37C0.378,-0.389 0.352,-0.398 0.318,-0.398C0.279,-0.398 0.249,-0.385 0.228,-0.36C0.207,-0.334 0.196,-0.298 0.196,-0.252L0.196,-0L0.07,-0Z" style="fill:white;fill-rule:nonzero;"/>
                        </g>
                        <g transform="matrix(26.5,0,0,26.5,310.208,44.319)">
                            <path d="M0.046,-0.246L0.046,-0.262C0.046,-0.314 0.056,-0.359 0.077,-0.396C0.098,-0.433 0.125,-0.461 0.16,-0.481C0.194,-0.5 0.231,-0.51 0.272,-0.51C0.317,-0.51 0.352,-0.502 0.375,-0.486C0.398,-0.47 0.415,-0.453 0.426,-0.436L0.444,-0.436L0.444,-0.496L0.568,-0.496L0.568,0.088C0.568,0.122 0.558,0.149 0.538,0.17C0.518,0.19 0.491,0.2 0.458,0.2L0.126,0.2L0.126,0.09L0.414,0.09C0.433,0.09 0.442,0.08 0.442,0.06L0.442,-0.069L0.424,-0.069C0.417,-0.058 0.408,-0.047 0.396,-0.037C0.384,-0.025 0.368,-0.016 0.348,-0.009C0.328,-0.002 0.303,0.002 0.272,0.002C0.231,0.002 0.194,-0.008 0.16,-0.028C0.125,-0.047 0.098,-0.076 0.077,-0.113C0.056,-0.15 0.046,-0.194 0.046,-0.246ZM0.308,-0.108C0.347,-0.108 0.379,-0.12 0.405,-0.145C0.431,-0.17 0.444,-0.204 0.444,-0.249L0.444,-0.259C0.444,-0.304 0.431,-0.339 0.406,-0.364C0.38,-0.388 0.347,-0.4 0.308,-0.4C0.269,-0.4 0.237,-0.388 0.211,-0.364C0.185,-0.339 0.172,-0.304 0.172,-0.259L0.172,-0.249C0.172,-0.204 0.185,-0.17 0.211,-0.145C0.237,-0.12 0.269,-0.108 0.308,-0.108Z" style="fill:white;fill-rule:nonzero;"/>
                        </g>
                        <g transform="matrix(26.5,0,0,26.5,331.81,44.319)">
                            <path d="M0.332,0.014C0.245,0.014 0.177,-0.01 0.126,-0.059C0.075,-0.107 0.05,-0.176 0.05,-0.266L0.05,-0.434C0.05,-0.524 0.075,-0.593 0.126,-0.642C0.177,-0.69 0.245,-0.714 0.332,-0.714C0.418,-0.714 0.485,-0.691 0.532,-0.644C0.579,-0.597 0.602,-0.532 0.602,-0.45L0.602,-0.444L0.472,-0.444L0.472,-0.454C0.472,-0.495 0.46,-0.529 0.438,-0.556C0.415,-0.583 0.379,-0.596 0.332,-0.596C0.285,-0.596 0.249,-0.582 0.222,-0.553C0.195,-0.524 0.182,-0.485 0.182,-0.436L0.182,-0.264C0.182,-0.215 0.195,-0.177 0.222,-0.148C0.249,-0.119 0.285,-0.104 0.332,-0.104C0.379,-0.104 0.415,-0.118 0.438,-0.145C0.46,-0.171 0.472,-0.205 0.472,-0.246L0.472,-0.264L0.602,-0.264L0.602,-0.25C0.602,-0.168 0.579,-0.103 0.532,-0.057C0.485,-0.01 0.418,0.014 0.332,0.014Z" style="fill:white;fill-rule:nonzero;"/>
                        </g>
                        <g transform="matrix(26.5,0,0,26.5,347.857,44.319)">
                            <path d="M0.306,0.014C0.257,0.014 0.212,0.004 0.173,-0.016C0.134,-0.036 0.103,-0.065 0.08,-0.103C0.057,-0.141 0.046,-0.187 0.046,-0.24L0.046,-0.256C0.046,-0.309 0.057,-0.355 0.08,-0.393C0.103,-0.431 0.134,-0.46 0.173,-0.48C0.212,-0.5 0.257,-0.51 0.306,-0.51C0.355,-0.51 0.4,-0.5 0.439,-0.48C0.478,-0.46 0.509,-0.431 0.532,-0.393C0.555,-0.355 0.566,-0.309 0.566,-0.256L0.566,-0.24C0.566,-0.187 0.555,-0.141 0.532,-0.103C0.509,-0.065 0.478,-0.036 0.439,-0.016C0.4,0.004 0.355,0.014 0.306,0.014ZM0.306,-0.098C0.345,-0.098 0.377,-0.111 0.402,-0.136C0.427,-0.161 0.44,-0.196 0.44,-0.243L0.44,-0.253C0.44,-0.3 0.428,-0.335 0.403,-0.361C0.378,-0.386 0.345,-0.398 0.306,-0.398C0.267,-0.398 0.235,-0.386 0.21,-0.361C0.185,-0.335 0.172,-0.3 0.172,-0.253L0.172,-0.243C0.172,-0.196 0.185,-0.161 0.21,-0.136C0.235,-0.111 0.267,-0.098 0.306,-0.098Z" style="fill:white;fill-rule:nonzero;"/>
                        </g>
                        <g transform="matrix(26.5,0,0,26.5,363.057,44.319)">
                            <path d="M0.07,-0L0.07,-0.496L0.194,-0.496L0.194,-0.431L0.212,-0.431C0.22,-0.448 0.235,-0.465 0.257,-0.481C0.279,-0.496 0.312,-0.504 0.357,-0.504C0.396,-0.504 0.43,-0.495 0.459,-0.478C0.488,-0.46 0.51,-0.436 0.526,-0.405C0.542,-0.374 0.55,-0.337 0.55,-0.296L0.55,-0L0.424,-0L0.424,-0.286C0.424,-0.323 0.415,-0.351 0.397,-0.37C0.378,-0.389 0.352,-0.398 0.318,-0.398C0.279,-0.398 0.249,-0.385 0.228,-0.36C0.207,-0.334 0.196,-0.298 0.196,-0.252L0.196,-0L0.07,-0Z" style="fill:white;fill-rule:nonzero;"/>
                        </g>
                        <g transform="matrix(26.5,0,0,26.5,378.363,44.319)">
                            <path d="M0.276,0.014C0.211,0.014 0.158,0 0.117,-0.028C0.076,-0.056 0.051,-0.096 0.042,-0.148L0.158,-0.178C0.163,-0.155 0.171,-0.136 0.182,-0.123C0.193,-0.11 0.206,-0.1 0.223,-0.095C0.239,-0.089 0.257,-0.086 0.276,-0.086C0.305,-0.086 0.327,-0.091 0.341,-0.102C0.355,-0.112 0.362,-0.125 0.362,-0.14C0.362,-0.155 0.355,-0.167 0.342,-0.176C0.329,-0.184 0.307,-0.191 0.278,-0.196L0.25,-0.201C0.215,-0.208 0.184,-0.217 0.155,-0.229C0.126,-0.24 0.103,-0.256 0.086,-0.277C0.069,-0.298 0.06,-0.324 0.06,-0.357C0.06,-0.406 0.078,-0.444 0.114,-0.471C0.15,-0.497 0.197,-0.51 0.256,-0.51C0.311,-0.51 0.357,-0.498 0.394,-0.473C0.431,-0.448 0.455,-0.416 0.466,-0.376L0.349,-0.34C0.344,-0.365 0.333,-0.383 0.317,-0.394C0.3,-0.405 0.28,-0.41 0.256,-0.41C0.232,-0.41 0.214,-0.406 0.201,-0.398C0.188,-0.389 0.182,-0.378 0.182,-0.363C0.182,-0.347 0.189,-0.335 0.202,-0.328C0.215,-0.32 0.233,-0.314 0.256,-0.31L0.284,-0.305C0.321,-0.298 0.355,-0.29 0.386,-0.279C0.416,-0.268 0.44,-0.252 0.458,-0.232C0.475,-0.211 0.484,-0.184 0.484,-0.149C0.484,-0.097 0.465,-0.057 0.428,-0.029C0.39,-0 0.339,0.014 0.276,0.014Z" style="fill:white;fill-rule:nonzero;"/>
                        </g>
                        <g transform="matrix(26.5,0,0,26.5,391.231,44.319)">
                            <path d="M0.259,0.008C0.22,0.008 0.187,-0.001 0.158,-0.019C0.129,-0.036 0.106,-0.061 0.09,-0.092C0.074,-0.123 0.066,-0.159 0.066,-0.2L0.066,-0.496L0.192,-0.496L0.192,-0.21C0.192,-0.173 0.201,-0.145 0.22,-0.126C0.238,-0.107 0.264,-0.098 0.298,-0.098C0.337,-0.098 0.367,-0.111 0.388,-0.137C0.409,-0.162 0.42,-0.198 0.42,-0.244L0.42,-0.496L0.546,-0.496L0.546,-0L0.422,-0L0.422,-0.065L0.404,-0.065C0.396,-0.048 0.381,-0.032 0.359,-0.016C0.337,0 0.304,0.008 0.259,0.008Z" style="fill:white;fill-rule:nonzero;"/>
                        </g>
                        <g transform="matrix(26.5,0,0,26.5,406.537,44.319)">
                            <rect x="0.07" y="-0.7" width="0.126" height="0.7" style="fill:white;fill-rule:nonzero;"/>
                        </g>
                        <g transform="matrix(26.5,0,0,26.5,412.568,44.319)">
                            <path d="M0.26,-0C0.227,-0 0.201,-0.01 0.181,-0.031C0.16,-0.051 0.15,-0.078 0.15,-0.112L0.15,-0.392L0.026,-0.392L0.026,-0.496L0.15,-0.496L0.15,-0.65L0.276,-0.65L0.276,-0.496L0.412,-0.496L0.412,-0.392L0.276,-0.392L0.276,-0.134C0.276,-0.114 0.285,-0.104 0.304,-0.104L0.4,-0.104L0.4,-0L0.26,-0Z" style="fill:white;fill-rule:nonzero;"/>
                        </g>
                        <g transform="matrix(26.5,0,0,26.5,423.634,44.319)">
                            <path d="M0.224,0.014C0.189,0.014 0.157,0.008 0.129,-0.005C0.101,-0.017 0.079,-0.035 0.063,-0.059C0.046,-0.082 0.038,-0.111 0.038,-0.145C0.038,-0.179 0.046,-0.208 0.063,-0.231C0.079,-0.254 0.101,-0.271 0.131,-0.283C0.16,-0.294 0.193,-0.3 0.23,-0.3L0.366,-0.3L0.366,-0.328C0.366,-0.351 0.359,-0.371 0.344,-0.386C0.329,-0.401 0.306,-0.408 0.274,-0.408C0.243,-0.408 0.219,-0.401 0.204,-0.387C0.189,-0.372 0.179,-0.354 0.174,-0.331L0.058,-0.37C0.066,-0.395 0.079,-0.419 0.097,-0.44C0.114,-0.46 0.138,-0.478 0.168,-0.491C0.197,-0.503 0.233,-0.51 0.276,-0.51C0.341,-0.51 0.393,-0.494 0.431,-0.461C0.469,-0.428 0.488,-0.381 0.488,-0.319L0.488,-0.134C0.488,-0.114 0.497,-0.104 0.516,-0.104L0.556,-0.104L0.556,-0L0.472,-0C0.447,-0 0.427,-0.006 0.411,-0.018C0.395,-0.03 0.387,-0.046 0.387,-0.066L0.387,-0.067L0.368,-0.067C0.365,-0.059 0.359,-0.049 0.35,-0.036C0.341,-0.023 0.326,-0.011 0.306,-0.001C0.286,0.009 0.259,0.014 0.224,0.014ZM0.246,-0.088C0.281,-0.088 0.31,-0.098 0.333,-0.118C0.355,-0.137 0.366,-0.163 0.366,-0.196L0.366,-0.206L0.239,-0.206C0.216,-0.206 0.197,-0.201 0.184,-0.191C0.171,-0.181 0.164,-0.167 0.164,-0.149C0.164,-0.131 0.171,-0.116 0.185,-0.105C0.199,-0.094 0.219,-0.088 0.246,-0.088Z" style="fill:white;fill-rule:nonzero;"/>
                        </g>
                        <g transform="matrix(26.5,0,0,26.5,437.933,44.319)">
                            <path d="M0.07,-0L0.07,-0.496L0.194,-0.496L0.194,-0.431L0.212,-0.431C0.22,-0.448 0.235,-0.465 0.257,-0.481C0.279,-0.496 0.312,-0.504 0.357,-0.504C0.396,-0.504 0.43,-0.495 0.459,-0.478C0.488,-0.46 0.51,-0.436 0.526,-0.405C0.542,-0.374 0.55,-0.337 0.55,-0.296L0.55,-0L0.424,-0L0.424,-0.286C0.424,-0.323 0.415,-0.351 0.397,-0.37C0.378,-0.389 0.352,-0.398 0.318,-0.398C0.279,-0.398 0.249,-0.385 0.228,-0.36C0.207,-0.334 0.196,-0.298 0.196,-0.252L0.196,-0L0.07,-0Z" style="fill:white;fill-rule:nonzero;"/>
                        </g>
                        <g transform="matrix(26.5,0,0,26.5,452.868,44.319)">
                            <path d="M0.26,-0C0.227,-0 0.201,-0.01 0.181,-0.031C0.16,-0.051 0.15,-0.078 0.15,-0.112L0.15,-0.392L0.026,-0.392L0.026,-0.496L0.15,-0.496L0.15,-0.65L0.276,-0.65L0.276,-0.496L0.412,-0.496L0.412,-0.392L0.276,-0.392L0.276,-0.134C0.276,-0.114 0.285,-0.104 0.304,-0.104L0.4,-0.104L0.4,-0L0.26,-0Z" style="fill:white;fill-rule:nonzero;"/>
                        </g>
                        <g transform="matrix(26.5,0,0,26.5,463.934,44.319)">
                            <path d="M0.276,0.014C0.211,0.014 0.158,0 0.117,-0.028C0.076,-0.056 0.051,-0.096 0.042,-0.148L0.158,-0.178C0.163,-0.155 0.171,-0.136 0.182,-0.123C0.193,-0.11 0.206,-0.1 0.223,-0.095C0.239,-0.089 0.257,-0.086 0.276,-0.086C0.305,-0.086 0.327,-0.091 0.341,-0.102C0.355,-0.112 0.362,-0.125 0.362,-0.14C0.362,-0.155 0.355,-0.167 0.342,-0.176C0.329,-0.184 0.307,-0.191 0.278,-0.196L0.25,-0.201C0.215,-0.208 0.184,-0.217 0.155,-0.229C0.126,-0.24 0.103,-0.256 0.086,-0.277C0.069,-0.298 0.06,-0.324 0.06,-0.357C0.06,-0.406 0.078,-0.444 0.114,-0.471C0.15,-0.497 0.197,-0.51 0.256,-0.51C0.311,-0.51 0.357,-0.498 0.394,-0.473C0.431,-0.448 0.455,-0.416 0.466,-0.376L0.349,-0.34C0.344,-0.365 0.333,-0.383 0.317,-0.394C0.3,-0.405 0.28,-0.41 0.256,-0.41C0.232,-0.41 0.214,-0.406 0.201,-0.398C0.188,-0.389 0.182,-0.378 0.182,-0.363C0.182,-0.347 0.189,-0.335 0.202,-0.328C0.215,-0.32 0.233,-0.314 0.256,-0.31L0.284,-0.305C0.321,-0.298 0.355,-0.29 0.386,-0.279C0.416,-0.268 0.44,-0.252 0.458,-0.232C0.475,-0.211 0.484,-0.184 0.484,-0.149C0.484,-0.097 0.465,-0.057 0.428,-0.029C0.39,-0 0.339,0.014 0.276,0.014Z" style="fill:white;fill-rule:nonzero;"/>
                        </g>
                    </g>
                </g>
                <g transform="matrix(1,0,0,1,-27833.7,85.3596)">
                    <circle cx="30813.2" cy="346.841" r="40.487" style="fill:none;stroke:white;stroke-width:9.28px;"/>
                </g>
                <g transform="matrix(4.16667,0,0,4.16667,2826.7,307.9)">
                    <g transform="matrix(11,0,0,11,33.1934,33.469)">
                        <path d="M0.066,-0L0.066,-0.7L0.37,-0.7C0.414,-0.7 0.452,-0.692 0.485,-0.677C0.518,-0.662 0.543,-0.64 0.561,-0.612C0.579,-0.584 0.588,-0.551 0.588,-0.513L0.588,-0.501C0.588,-0.459 0.578,-0.425 0.558,-0.399C0.538,-0.373 0.513,-0.354 0.484,-0.342L0.484,-0.324C0.511,-0.323 0.531,-0.314 0.546,-0.297C0.561,-0.28 0.568,-0.257 0.568,-0.229L0.568,-0L0.436,-0L0.436,-0.21C0.436,-0.226 0.432,-0.239 0.424,-0.249C0.415,-0.259 0.401,-0.264 0.382,-0.264L0.198,-0.264L0.198,-0L0.066,-0ZM0.198,-0.384L0.356,-0.384C0.387,-0.384 0.412,-0.393 0.43,-0.41C0.447,-0.427 0.456,-0.449 0.456,-0.477L0.456,-0.487C0.456,-0.515 0.447,-0.538 0.43,-0.555C0.413,-0.572 0.388,-0.58 0.356,-0.58L0.198,-0.58L0.198,-0.384Z" style="fill:white;fill-rule:nonzero;"/>
                    </g>
                </g>
            </g>
        </g>
    </g>
</svg>
