<?xml version="1.0" encoding="UTF-8" standalone="no"?>
<!DOCTYPE svg PUBLIC "-//W3C//DTD SVG 1.1//EN" "http://www.w3.org/Graphics/SVG/1.1/DTD/svg11.dtd">
<svg width="100%" height="100%" viewBox="0 0 838 285" version="1.1" xmlns="http://www.w3.org/2000/svg" xmlns:xlink="http://www.w3.org/1999/xlink" xml:space="preserve" xmlns:serif="http://www.serif.com/" style="fill-rule:evenodd;clip-rule:evenodd;stroke-linecap:round;stroke-linejoin:round;stroke-miterlimit:1.5;">
    <g transform="matrix(1,0,0,1,-57440.4,-723.902)">
        <g transform="matrix(1,0,0,1,55269.1,0)">
            <g transform="matrix(0.449003,0,0,0.449003,1651,550.105)">
                <g transform="matrix(0.936823,0,0,0.936823,73.2048,24.7473)">
                    <g transform="matrix(1,0,0,1,-27751.4,-134.222)">
                        <path d="M30767.3,525.936L30619.4,525.936C30474.1,525.936 30356.3,643.767 30356.3,789.119C30356.3,934.471 30474.1,1052.3 30619.4,1052.3L30767.3,1052.3L30767.3,974.789L30619.4,974.789L30619.4,974.773C30516.9,974.773 30433.8,891.653 30433.8,789.119C30433.8,686.585 30516.9,603.465 30619.4,603.465L30619.4,603.448L30767.3,603.448L30767.3,525.936Z" style="fill:white;"/>
                    </g>
                    <g transform="matrix(1,0,0,1,-27751.4,-134.222)">
                        <path d="M29723.7,897.458C29826.3,897.458 29909.5,814.29 29909.5,711.697C29909.5,609.104 29826.3,525.936 29723.7,525.936L29723.7,606.456C29781.8,606.456 29828.9,653.574 29828.9,711.697C29828.9,769.82 29781.8,816.938 29723.7,816.938L29723.7,897.458ZM29586,1052.3L29586,897.458L29723.7,897.458L29723.7,817.131L29586,817.131L29586,525.936L29505.7,525.936L29505.7,1052.3L29586,1052.3ZM29723.7,525.936L29617.2,525.936L29617.2,606.263L29723.7,606.263L29723.7,525.936Z" style="fill:white;"/>
                    </g>
                    <g transform="matrix(1,0,0,1,-27751.4,-134.222)">
                        <path d="M30045.5,971.975L30045.5,829.282L30296.3,829.282L30296.3,748.955L30045.5,748.955L30045.5,606.263L30356.3,606.263L30356.3,525.936L29965.2,525.936L29965.2,1052.3L30356.3,1052.3L30356.3,971.975L30045.5,971.975Z" style="fill:white;"/>
                    </g>
                    <g transform="matrix(1,0,0,1,-27751.4,-134.222)">
                        <path d="M28963.3,525.936L28910.1,525.936L28910.1,1052.3L28963.3,1052.3L28963.3,525.936ZM29437,525.936L28963.3,525.936L28963.3,579.134L29383.8,579.134L29383.8,999.104L29060.4,999.104L29060.4,629.629L29007.2,629.629L29007.2,1052.3L29437,1052.3L29437,525.936ZM29060.4,958.203L29341.1,958.203L29341.1,629.629L29060.4,629.629L29060.4,682.827L29287.9,682.827L29287.9,722.705L29100.3,722.705L29100.3,867.564L29287.9,867.564L29287.9,905.005L29060.4,905.005L29060.4,958.203ZM29287.9,775.903L29150.4,775.903L29150.4,814.366L29287.9,814.366L29287.9,775.903Z" style="fill:white;"/>
                    </g>
                    <g transform="matrix(4.16667,0,0,4.16667,1020.42,856.466)">
                        <text x="33.193px" y="44.319px" style="font-family:'SpaceGrotesk-Bold', 'Space Grotesk';font-weight:700;font-size:26.5px;fill:white;">P<tspan x="48.181px 57.18px 71.956px 82.068px 96.34px 109.208px 122.076px 128.107px 143.307px 158.613px 172.912px 178.943px 184.656px 198.319px 213.624px 229.513px 235.544px 250.85px 265.123px 279.395px 288.871px 294.902px 310.208px 326.097px 331.81px 347.857px 363.057px 378.363px 391.231px 406.537px 412.568px 423.634px 437.933px 452.868px 463.934px " y="44.319px 44.319px 44.319px 44.319px 44.319px 44.319px 44.319px 44.319px 44.319px 44.319px 44.319px 44.319px 44.319px 44.319px 44.319px 44.319px 44.319px 44.319px 44.319px 44.319px 44.319px 44.319px 44.319px 44.319px 44.319px 44.319px 44.319px 44.319px 44.319px 44.319px 44.319px 44.319px 44.319px 44.319px 44.319px ">rofessional Engineering Consultants</tspan></text>
                    </g>
                </g>
                <g transform="matrix(1,0,0,1,-27833.7,85.3596)">
                    <circle cx="30813.2" cy="346.841" r="40.487" style="fill:none;stroke:white;stroke-width:9.28px;"/>
                </g>
                <g transform="matrix(4.16667,0,0,4.16667,2826.7,307.9)">
                    <text x="33.193px" y="33.469px" style="font-family:'SpaceGrotesk-Bold', 'Space Grotesk';font-weight:700;font-size:11px;fill:white;">R</text>
                </g>
            </g>
        </g>
    </g>
</svg>
