<?xml version="1.0" encoding="UTF-8" standalone="no"?><!DOCTYPE svg PUBLIC "-//W3C//DTD SVG 1.1//EN" "http://www.w3.org/Graphics/SVG/1.1/DTD/svg11.dtd"><svg width="100%" height="100%" viewBox="0 0 1118 380" version="1.1" xmlns="http://www.w3.org/2000/svg" xmlns:xlink="http://www.w3.org/1999/xlink" xml:space="preserve" xmlns:serif="http://www.serif.com/" style="fill-rule:evenodd;clip-rule:evenodd;stroke-linecap:round;stroke-linejoin:round;stroke-miterlimit:1.5;"><g><g><path d="M1041.59,2.778l-82.917,-0c-81.52,-0 -147.605,66.085 -147.605,147.606c-0,81.52 66.085,147.605 147.605,147.605l82.917,0l0,-43.472l-82.917,-0l0,-0.009c-57.506,-0 -104.124,-46.618 -104.124,-104.124c0,-57.506 46.618,-104.124 104.124,-104.124l0,-0.01l82.917,0l0,-43.472Z"/><path d="M456.299,211.145c57.539,0 104.183,-46.644 104.183,-104.183c0,-57.54 -46.644,-104.184 -104.183,-104.184l-0,45.159c32.598,0 59.024,26.426 59.024,59.025c-0,32.598 -26.426,59.024 -59.024,59.024l-0,45.159Zm-77.207,86.844l-0,-86.844l77.207,0l-0,-45.051l-77.207,-0l-0,-163.316l-45.052,-0l0,295.211l45.052,0Zm77.207,-295.211l-59.72,-0l-0,45.051l59.72,0l-0,-45.051Z"/><path d="M636.81,252.938l-0,-80.029l140.616,0l0,-45.051l-140.616,-0l-0,-80.029l174.26,0l-0,-45.051l-219.312,-0l0,295.211l219.312,0l-0,-45.051l-174.26,0Z"/><path d="M29.836,2.778l-29.836,-0l0,295.211l29.836,0l-0,-295.211Zm265.655,-0l-265.655,-0l-0,29.836l235.819,-0l-0,235.539l-181.39,0l-0,-207.219l-29.836,0l-0,237.055l241.062,0l-0,-295.211Zm-211.226,242.436l157.446,0l-0,-184.28l-157.446,0l-0,29.836l127.61,0l-0,22.366l-105.217,-0l-0,81.244l105.217,-0l-0,20.998l-127.61,0l-0,29.836Zm127.61,-102.242l-77.12,-0l0,21.572l77.12,-0l-0,-21.572Z"/><path d="M4.087,367.001l0,-43.349l17.835,0c2.725,0 5.13,0.547 7.215,1.642c2.085,1.094 3.715,2.631 4.892,4.613c1.177,1.982 1.765,4.335 1.765,7.06l-0,0.867c-0,2.683 -0.609,5.026 -1.827,7.028c-1.218,2.003 -2.869,3.551 -4.954,4.645c-2.085,1.094 -4.449,1.641 -7.091,1.641l-9.66,0l-0,15.853l-8.175,0Zm8.175,-23.284l8.855,-0c1.941,-0 3.509,-0.537 4.707,-1.61c1.197,-1.074 1.795,-2.539 1.795,-4.397l0,-0.619c0,-1.858 -0.598,-3.324 -1.795,-4.397c-1.198,-1.074 -2.766,-1.61 -4.707,-1.61l-8.855,-0l-0,12.633Z" style="fill-rule:nonzero;"/><path d="M39.36,367.001l-0,-30.715l7.679,-0l-0,3.467l1.114,0c0.454,-1.238 1.208,-2.146 2.261,-2.724c1.052,-0.578 2.281,-0.867 3.684,-0.867l3.716,-0l-0,6.936l-3.84,-0c-1.981,-0 -3.612,0.526 -4.892,1.579c-1.28,1.052 -1.92,2.673 -1.92,4.861l0,17.463l-7.802,0Z" style="fill-rule:nonzero;"/><path d="M75.004,367.868c-3.055,0 -5.801,-0.619 -8.237,-1.857c-2.435,-1.239 -4.355,-3.035 -5.759,-5.388c-1.403,-2.353 -2.105,-5.181 -2.105,-8.484l-0,-0.991c-0,-3.303 0.702,-6.131 2.105,-8.484c1.404,-2.353 3.324,-4.149 5.759,-5.388c2.436,-1.238 5.182,-1.857 8.237,-1.857c3.055,-0 5.8,0.619 8.236,1.857c2.436,1.239 4.356,3.035 5.759,5.388c1.404,2.353 2.106,5.181 2.106,8.484l-0,0.991c-0,3.303 -0.702,6.131 -2.106,8.484c-1.403,2.353 -3.323,4.149 -5.759,5.388c-2.436,1.238 -5.181,1.857 -8.236,1.857Zm-0,-6.935c2.394,-0 4.376,-0.775 5.945,-2.323c1.569,-1.548 2.353,-3.767 2.353,-6.657l-0,-0.619c-0,-2.89 -0.774,-5.109 -2.322,-6.657c-1.548,-1.548 -3.54,-2.323 -5.976,-2.323c-2.395,0 -4.376,0.775 -5.945,2.323c-1.569,1.548 -2.353,3.767 -2.353,6.657l-0,0.619c-0,2.89 0.784,5.109 2.353,6.657c1.569,1.548 3.55,2.323 5.945,2.323Z" style="fill-rule:nonzero;"/><path d="M99.996,367.001l0,-24.275l-7.802,-0l-0,-6.44l7.802,-0l0,-5.698c0,-2.105 0.63,-3.788 1.889,-5.047c1.259,-1.259 2.9,-1.889 4.923,-1.889l8.051,0l-0,6.441l-5.326,-0c-1.156,-0 -1.734,0.619 -1.734,1.858l0,4.335l8.051,-0l-0,6.44l-8.051,-0l0,24.275l-7.803,0Z" style="fill-rule:nonzero;"/><path d="M132.544,367.868c-3.055,0 -5.749,-0.65 -8.081,-1.95c-2.333,-1.301 -4.15,-3.138 -5.45,-5.512c-1.3,-2.374 -1.951,-5.171 -1.951,-8.391l0,-0.743c0,-3.22 0.64,-6.017 1.92,-8.391c1.28,-2.374 3.076,-4.211 5.388,-5.512c2.312,-1.3 4.995,-1.95 8.05,-1.95c3.014,-0 5.636,0.67 7.865,2.012c2.229,1.342 3.963,3.2 5.202,5.574c1.238,2.374 1.858,5.129 1.858,8.267l-0,2.663l-22.356,-0c0.083,2.105 0.867,3.819 2.353,5.14c1.486,1.321 3.303,1.981 5.45,1.981c2.188,0 3.798,-0.474 4.83,-1.424c1.032,-0.949 1.817,-2.002 2.353,-3.158l6.379,3.344c-0.578,1.073 -1.414,2.24 -2.508,3.499c-1.094,1.259 -2.55,2.332 -4.366,3.22c-1.817,0.888 -4.129,1.331 -6.936,1.331Zm-7.493,-19.754l14.367,-0c-0.165,-1.776 -0.877,-3.2 -2.137,-4.273c-1.259,-1.074 -2.9,-1.61 -4.923,-1.61c-2.105,-0 -3.777,0.536 -5.016,1.61c-1.238,1.073 -2.002,2.497 -2.291,4.273Z" style="fill-rule:nonzero;"/><path d="M164.658,367.868c-4.004,0 -7.286,-0.867 -9.846,-2.601c-2.56,-1.734 -4.108,-4.211 -4.645,-7.431l7.184,-1.858c0.289,1.445 0.774,2.581 1.455,3.406c0.681,0.826 1.528,1.414 2.539,1.765c1.012,0.351 2.116,0.527 3.313,0.527c1.817,-0 3.159,-0.32 4.026,-0.96c0.867,-0.64 1.3,-1.435 1.3,-2.384c0,-0.95 -0.413,-1.683 -1.239,-2.199c-0.825,-0.516 -2.146,-0.939 -3.963,-1.269l-1.734,-0.31c-2.147,-0.413 -4.108,-0.98 -5.883,-1.703c-1.775,-0.722 -3.199,-1.724 -4.273,-3.003c-1.073,-1.28 -1.61,-2.932 -1.61,-4.955c0,-3.055 1.115,-5.398 3.344,-7.028c2.229,-1.631 5.161,-2.446 8.794,-2.446c3.426,-0 6.275,0.763 8.546,2.291c2.27,1.527 3.757,3.53 4.458,6.007l-7.245,2.229c-0.33,-1.569 -1.001,-2.683 -2.013,-3.344c-1.011,-0.66 -2.26,-0.991 -3.746,-0.991c-1.487,0 -2.622,0.258 -3.406,0.774c-0.785,0.516 -1.177,1.229 -1.177,2.137c0,0.991 0.413,1.724 1.239,2.198c0.825,0.475 1.94,0.836 3.344,1.084l1.734,0.31c2.312,0.412 4.407,0.96 6.285,1.641c1.879,0.681 3.365,1.651 4.459,2.91c1.094,1.259 1.641,2.962 1.641,5.109c0,3.22 -1.166,5.708 -3.499,7.462c-2.332,1.755 -5.46,2.632 -9.382,2.632Z" style="fill-rule:nonzero;"/><path d="M194.729,367.868c-4.005,0 -7.287,-0.867 -9.846,-2.601c-2.56,-1.734 -4.108,-4.211 -4.645,-7.431l7.184,-1.858c0.289,1.445 0.774,2.581 1.455,3.406c0.681,0.826 1.527,1.414 2.539,1.765c1.011,0.351 2.116,0.527 3.313,0.527c1.816,-0 3.158,-0.32 4.025,-0.96c0.867,-0.64 1.301,-1.435 1.301,-2.384c-0,-0.95 -0.413,-1.683 -1.239,-2.199c-0.826,-0.516 -2.147,-0.939 -3.963,-1.269l-1.734,-0.31c-2.147,-0.413 -4.108,-0.98 -5.883,-1.703c-1.776,-0.722 -3.2,-1.724 -4.273,-3.003c-1.074,-1.28 -1.61,-2.932 -1.61,-4.955c-0,-3.055 1.114,-5.398 3.344,-7.028c2.229,-1.631 5.16,-2.446 8.793,-2.446c3.427,-0 6.276,0.763 8.546,2.291c2.271,1.527 3.757,3.53 4.459,6.007l-7.245,2.229c-0.331,-1.569 -1.002,-2.683 -2.013,-3.344c-1.012,-0.66 -2.26,-0.991 -3.747,-0.991c-1.486,0 -2.621,0.258 -3.406,0.774c-0.784,0.516 -1.176,1.229 -1.176,2.137c-0,0.991 0.413,1.724 1.238,2.198c0.826,0.475 1.941,0.836 3.344,1.084l1.734,0.31c2.312,0.412 4.407,0.96 6.286,1.641c1.878,0.681 3.365,1.651 4.459,2.91c1.094,1.259 1.641,2.962 1.641,5.109c-0,3.22 -1.167,5.708 -3.499,7.462c-2.333,1.755 -5.46,2.632 -9.382,2.632Z" style="fill-rule:nonzero;"/><path d="M212.043,367.001l-0,-30.715l7.802,-0l0,30.715l-7.802,0Zm3.901,-34.307c-1.404,-0 -2.591,-0.454 -3.561,-1.363c-0.97,-0.908 -1.455,-2.105 -1.455,-3.591c-0,-1.487 0.485,-2.684 1.455,-3.592c0.97,-0.908 2.157,-1.363 3.561,-1.363c1.445,0 2.642,0.455 3.592,1.363c0.949,0.908 1.424,2.105 1.424,3.592c0,1.486 -0.475,2.683 -1.424,3.591c-0.95,0.909 -2.147,1.363 -3.592,1.363Z" style="fill-rule:nonzero;"/><path d="M240.751,367.868c-3.055,0 -5.801,-0.619 -8.236,-1.857c-2.436,-1.239 -4.356,-3.035 -5.76,-5.388c-1.403,-2.353 -2.105,-5.181 -2.105,-8.484l-0,-0.991c-0,-3.303 0.702,-6.131 2.105,-8.484c1.404,-2.353 3.324,-4.149 5.76,-5.388c2.435,-1.238 5.181,-1.857 8.236,-1.857c3.055,-0 5.8,0.619 8.236,1.857c2.436,1.239 4.356,3.035 5.759,5.388c1.404,2.353 2.106,5.181 2.106,8.484l-0,0.991c-0,3.303 -0.702,6.131 -2.106,8.484c-1.403,2.353 -3.323,4.149 -5.759,5.388c-2.436,1.238 -5.181,1.857 -8.236,1.857Zm-0,-6.935c2.394,-0 4.376,-0.775 5.945,-2.323c1.569,-1.548 2.353,-3.767 2.353,-6.657l0,-0.619c0,-2.89 -0.774,-5.109 -2.322,-6.657c-1.548,-1.548 -3.54,-2.323 -5.976,-2.323c-2.395,0 -4.376,0.775 -5.945,2.323c-1.569,1.548 -2.353,3.767 -2.353,6.657l-0,0.619c-0,2.89 0.784,5.109 2.353,6.657c1.569,1.548 3.55,2.323 5.945,2.323Z" style="fill-rule:nonzero;"/><path d="M261.656,367.001l0,-30.715l7.679,-0l0,4.025l1.115,-0c0.495,-1.074 1.424,-2.095 2.787,-3.066c1.362,-0.97 3.426,-1.455 6.192,-1.455c2.395,0 4.49,0.547 6.286,1.641c1.796,1.094 3.189,2.601 4.18,4.521c0.991,1.92 1.486,4.159 1.486,6.719l0,18.33l-7.803,0l0,-17.711c0,-2.312 -0.567,-4.046 -1.703,-5.202c-1.135,-1.156 -2.755,-1.734 -4.861,-1.734c-2.394,0 -4.252,0.795 -5.573,2.385c-1.321,1.589 -1.982,3.808 -1.982,6.657l0,15.605l-7.803,0Z" style="fill-rule:nonzero;"/><path d="M306.961,367.868c-2.188,0 -4.149,-0.382 -5.883,-1.145c-1.734,-0.764 -3.107,-1.879 -4.118,-3.344c-1.012,-1.466 -1.518,-3.252 -1.518,-5.357c0,-2.106 0.506,-3.87 1.518,-5.295c1.011,-1.424 2.415,-2.498 4.211,-3.22c1.796,-0.722 3.85,-1.084 6.161,-1.084l8.423,0l-0,-1.734c-0,-1.445 -0.455,-2.632 -1.363,-3.56c-0.908,-0.929 -2.353,-1.394 -4.335,-1.394c-1.94,0 -3.385,0.444 -4.335,1.332c-0.949,0.887 -1.568,2.033 -1.857,3.437l-7.184,-2.416c0.495,-1.568 1.29,-3.003 2.384,-4.304c1.094,-1.3 2.56,-2.353 4.397,-3.158c1.837,-0.805 4.077,-1.207 6.719,-1.207c4.046,-0 7.246,1.011 9.599,3.034c2.353,2.023 3.53,4.954 3.53,8.794l-0,11.456c-0,1.239 0.578,1.858 1.734,1.858l2.477,-0l-0,6.44l-5.202,0c-1.528,0 -2.787,-0.371 -3.778,-1.114c-0.991,-0.743 -1.486,-1.734 -1.486,-2.973l0,-0.062l-1.177,0c-0.165,0.496 -0.536,1.146 -1.114,1.951c-0.578,0.805 -1.487,1.517 -2.725,2.136c-1.239,0.62 -2.931,0.929 -5.078,0.929Zm1.362,-6.316c2.188,-0 3.974,-0.609 5.357,-1.827c1.383,-1.218 2.075,-2.838 2.075,-4.861l-0,-0.62l-7.865,0c-1.445,0 -2.58,0.31 -3.406,0.929c-0.826,0.62 -1.239,1.487 -1.239,2.601c0,1.115 0.434,2.023 1.301,2.725c0.867,0.702 2.126,1.053 3.777,1.053Z" style="fill-rule:nonzero;"/><rect x="330.839" y="323.652" width="7.803" height="43.349" style="fill-rule:nonzero;"/><path d="M358.035,367.001l-0,-43.349l27.867,0l0,7.432l-19.693,-0l0,10.342l17.959,-0l0,7.431l-17.959,-0l0,10.713l20.065,0l-0,7.431l-28.239,0Z" style="fill-rule:nonzero;"/><path d="M390.211,367.001l0,-30.715l7.679,-0l-0,4.025l1.115,-0c0.495,-1.074 1.424,-2.095 2.786,-3.066c1.363,-0.97 3.427,-1.455 6.193,-1.455c2.395,0 4.49,0.547 6.286,1.641c1.796,1.094 3.189,2.601 4.18,4.521c0.991,1.92 1.486,4.159 1.486,6.719l0,18.33l-7.803,0l0,-17.711c0,-2.312 -0.567,-4.046 -1.703,-5.202c-1.135,-1.156 -2.756,-1.734 -4.861,-1.734c-2.395,0 -4.252,0.795 -5.573,2.385c-1.322,1.589 -1.982,3.808 -1.982,6.657l-0,15.605l-7.803,0Z" style="fill-rule:nonzero;"/><path d="M424.493,351.767l-0,-0.99c-0,-3.221 0.64,-5.976 1.919,-8.268c1.28,-2.291 2.983,-4.046 5.109,-5.264c2.127,-1.217 4.449,-1.826 6.967,-1.826c2.808,-0 4.934,0.495 6.379,1.486c1.445,0.991 2.497,2.023 3.158,3.096l1.115,0l-0,-3.715l7.679,-0l-0,36.165c-0,2.106 -0.62,3.788 -1.858,5.047c-1.239,1.259 -2.89,1.889 -4.954,1.889l-20.56,-0l-0,-6.812l17.835,-0c1.156,-0 1.734,-0.619 1.734,-1.858l-0,-7.989l-1.115,0c-0.413,0.661 -0.991,1.332 -1.734,2.013c-0.743,0.681 -1.734,1.249 -2.972,1.703c-1.239,0.454 -2.808,0.681 -4.707,0.681c-2.518,0 -4.84,-0.609 -6.967,-1.827c-2.126,-1.217 -3.829,-2.972 -5.109,-5.263c-1.279,-2.292 -1.919,-5.047 -1.919,-8.268Zm16.225,8.546c2.394,0 4.396,-0.763 6.007,-2.291c1.61,-1.528 2.415,-3.674 2.415,-6.44l-0,-0.62c-0,-2.807 -0.795,-4.964 -2.385,-6.471c-1.589,-1.507 -3.602,-2.26 -6.037,-2.26c-2.395,-0 -4.397,0.753 -6.007,2.26c-1.61,1.507 -2.415,3.664 -2.415,6.471l-0,0.62c-0,2.766 0.805,4.912 2.415,6.44c1.61,1.528 3.612,2.291 6.007,2.291Z" style="fill-rule:nonzero;"/><path d="M463.109,367.001l0,-30.715l7.803,-0l0,30.715l-7.803,0Zm3.902,-34.307c-1.404,-0 -2.591,-0.454 -3.561,-1.363c-0.97,-0.908 -1.455,-2.105 -1.455,-3.591c-0,-1.487 0.485,-2.684 1.455,-3.592c0.97,-0.908 2.157,-1.363 3.561,-1.363c1.445,0 2.642,0.455 3.591,1.363c0.95,0.908 1.425,2.105 1.425,3.592c-0,1.486 -0.475,2.683 -1.425,3.591c-0.949,0.909 -2.146,1.363 -3.591,1.363Z" style="fill-rule:nonzero;"/><path d="M477.203,367.001l-0,-30.715l7.679,-0l-0,4.025l1.114,-0c0.496,-1.074 1.425,-2.095 2.787,-3.066c1.362,-0.97 3.427,-1.455 6.193,-1.455c2.394,0 4.489,0.547 6.285,1.641c1.796,1.094 3.19,2.601 4.18,4.521c0.991,1.92 1.487,4.159 1.487,6.719l-0,18.33l-7.803,0l-0,-17.711c-0,-2.312 -0.568,-4.046 -1.703,-5.202c-1.135,-1.156 -2.756,-1.734 -4.861,-1.734c-2.395,0 -4.253,0.795 -5.574,2.385c-1.321,1.589 -1.981,3.808 -1.981,6.657l-0,15.605l-7.803,0Z" style="fill-rule:nonzero;"/><path d="M526.966,367.868c-3.055,0 -5.749,-0.65 -8.081,-1.95c-2.333,-1.301 -4.149,-3.138 -5.45,-5.512c-1.3,-2.374 -1.951,-5.171 -1.951,-8.391l0,-0.743c0,-3.22 0.64,-6.017 1.92,-8.391c1.28,-2.374 3.076,-4.211 5.388,-5.512c2.312,-1.3 4.995,-1.95 8.05,-1.95c3.014,-0 5.636,0.67 7.865,2.012c2.229,1.342 3.963,3.2 5.202,5.574c1.238,2.374 1.858,5.129 1.858,8.267l-0,2.663l-22.356,-0c0.083,2.105 0.867,3.819 2.353,5.14c1.487,1.321 3.303,1.981 5.45,1.981c2.188,0 3.798,-0.474 4.83,-1.424c1.032,-0.949 1.817,-2.002 2.353,-3.158l6.379,3.344c-0.578,1.073 -1.414,2.24 -2.508,3.499c-1.094,1.259 -2.549,2.332 -4.366,3.22c-1.817,0.888 -4.128,1.331 -6.936,1.331Zm-7.493,-19.754l14.367,-0c-0.165,-1.776 -0.877,-3.2 -2.136,-4.273c-1.26,-1.074 -2.901,-1.61 -4.924,-1.61c-2.105,-0 -3.777,0.536 -5.016,1.61c-1.238,1.073 -2.002,2.497 -2.291,4.273Z" style="fill-rule:nonzero;"/><path d="M560.319,367.868c-3.055,0 -5.749,-0.65 -8.082,-1.95c-2.332,-1.301 -4.149,-3.138 -5.449,-5.512c-1.301,-2.374 -1.951,-5.171 -1.951,-8.391l0,-0.743c0,-3.22 0.64,-6.017 1.92,-8.391c1.28,-2.374 3.076,-4.211 5.388,-5.512c2.311,-1.3 4.995,-1.95 8.05,-1.95c3.014,-0 5.635,0.67 7.865,2.012c2.229,1.342 3.963,3.2 5.202,5.574c1.238,2.374 1.857,5.129 1.857,8.267l0,2.663l-22.355,-0c0.082,2.105 0.867,3.819 2.353,5.14c1.486,1.321 3.303,1.981 5.45,1.981c2.188,0 3.798,-0.474 4.83,-1.424c1.032,-0.949 1.816,-2.002 2.353,-3.158l6.379,3.344c-0.578,1.073 -1.414,2.24 -2.508,3.499c-1.094,1.259 -2.55,2.332 -4.366,3.22c-1.817,0.888 -4.129,1.331 -6.936,1.331Zm-7.493,-19.754l14.367,-0c-0.165,-1.776 -0.877,-3.2 -2.137,-4.273c-1.259,-1.074 -2.9,-1.61 -4.923,-1.61c-2.105,-0 -3.777,0.536 -5.016,1.61c-1.239,1.073 -2.002,2.497 -2.291,4.273Z" style="fill-rule:nonzero;"/><path d="M579.676,367.001l0,-30.715l7.679,-0l0,3.467l1.115,0c0.454,-1.238 1.207,-2.146 2.26,-2.724c1.053,-0.578 2.281,-0.867 3.685,-0.867l3.715,-0l0,6.936l-3.839,-0c-1.982,-0 -3.612,0.526 -4.892,1.579c-1.28,1.052 -1.92,2.673 -1.92,4.861l-0,17.463l-7.803,0Z" style="fill-rule:nonzero;"/><path d="M601.82,367.001l0,-30.715l7.803,-0l-0,30.715l-7.803,0Zm3.902,-34.307c-1.404,-0 -2.591,-0.454 -3.561,-1.363c-0.97,-0.908 -1.456,-2.105 -1.456,-3.591c0,-1.487 0.486,-2.684 1.456,-3.592c0.97,-0.908 2.157,-1.363 3.561,-1.363c1.444,0 2.642,0.455 3.591,1.363c0.95,0.908 1.425,2.105 1.425,3.592c-0,1.486 -0.475,2.683 -1.425,3.591c-0.949,0.909 -2.147,1.363 -3.591,1.363Z" style="fill-rule:nonzero;"/><path d="M615.914,367.001l-0,-30.715l7.679,-0l-0,4.025l1.114,-0c0.496,-1.074 1.425,-2.095 2.787,-3.066c1.362,-0.97 3.427,-1.455 6.193,-1.455c2.394,0 4.489,0.547 6.285,1.641c1.796,1.094 3.189,2.601 4.18,4.521c0.991,1.92 1.487,4.159 1.487,6.719l-0,18.33l-7.803,0l-0,-17.711c-0,-2.312 -0.568,-4.046 -1.703,-5.202c-1.136,-1.156 -2.756,-1.734 -4.862,-1.734c-2.394,0 -4.252,0.795 -5.573,2.385c-1.321,1.589 -1.982,3.808 -1.982,6.657l0,15.605l-7.802,0Z" style="fill-rule:nonzero;"/><path d="M650.195,351.767l0,-0.99c0,-3.221 0.64,-5.976 1.92,-8.268c1.28,-2.291 2.983,-4.046 5.109,-5.264c2.126,-1.217 4.448,-1.826 6.967,-1.826c2.807,-0 4.933,0.495 6.378,1.486c1.445,0.991 2.498,2.023 3.159,3.096l1.114,0l0,-3.715l7.679,-0l0,36.165c0,2.106 -0.619,3.788 -1.858,5.047c-1.238,1.259 -2.89,1.889 -4.954,1.889l-20.56,-0l0,-6.812l17.835,-0c1.156,-0 1.734,-0.619 1.734,-1.858l0,-7.989l-1.114,0c-0.413,0.661 -0.991,1.332 -1.734,2.013c-0.743,0.681 -1.734,1.249 -2.973,1.703c-1.238,0.454 -2.807,0.681 -4.706,0.681c-2.519,0 -4.841,-0.609 -6.967,-1.827c-2.126,-1.217 -3.829,-2.972 -5.109,-5.263c-1.28,-2.292 -1.92,-5.047 -1.92,-8.268Zm16.225,8.546c2.395,0 4.397,-0.763 6.007,-2.291c1.61,-1.528 2.415,-3.674 2.415,-6.44l0,-0.62c0,-2.807 -0.795,-4.964 -2.384,-6.471c-1.589,-1.507 -3.602,-2.26 -6.038,-2.26c-2.394,-0 -4.397,0.753 -6.007,2.26c-1.61,1.507 -2.415,3.664 -2.415,6.471l0,0.62c0,2.766 0.805,4.912 2.415,6.44c1.61,1.528 3.613,2.291 6.007,2.291Z" style="fill-rule:nonzero;"/><path d="M718.387,367.868c-5.367,0 -9.619,-1.496 -12.757,-4.489c-3.138,-2.993 -4.706,-7.277 -4.706,-12.85l-0,-10.404c-0,-5.573 1.568,-9.857 4.706,-12.85c3.138,-2.993 7.39,-4.49 12.757,-4.49c5.326,0 9.444,1.456 12.354,4.366c2.911,2.911 4.366,6.905 4.366,11.983l0,0.372l-8.05,-0l-0,-0.619c-0,-2.56 -0.712,-4.666 -2.137,-6.317c-1.424,-1.651 -3.602,-2.477 -6.533,-2.477c-2.89,-0 -5.161,0.887 -6.812,2.663c-1.651,1.775 -2.477,4.19 -2.477,7.245l-0,10.652c-0,3.013 0.826,5.418 2.477,7.214c1.651,1.796 3.922,2.694 6.812,2.694c2.931,-0 5.109,-0.836 6.533,-2.508c1.425,-1.672 2.137,-3.767 2.137,-6.286l-0,-1.114l8.05,-0l0,0.867c0,5.078 -1.455,9.072 -4.366,11.983c-2.91,2.91 -7.028,4.365 -12.354,4.365Z" style="fill-rule:nonzero;"/><path d="M754.279,367.868c-3.055,0 -5.801,-0.619 -8.237,-1.857c-2.435,-1.239 -4.355,-3.035 -5.759,-5.388c-1.403,-2.353 -2.105,-5.181 -2.105,-8.484l-0,-0.991c-0,-3.303 0.702,-6.131 2.105,-8.484c1.404,-2.353 3.324,-4.149 5.759,-5.388c2.436,-1.238 5.182,-1.857 8.237,-1.857c3.055,-0 5.8,0.619 8.236,1.857c2.436,1.239 4.356,3.035 5.759,5.388c1.404,2.353 2.106,5.181 2.106,8.484l-0,0.991c-0,3.303 -0.702,6.131 -2.106,8.484c-1.403,2.353 -3.323,4.149 -5.759,5.388c-2.436,1.238 -5.181,1.857 -8.236,1.857Zm-0,-6.935c2.394,-0 4.376,-0.775 5.945,-2.323c1.569,-1.548 2.353,-3.767 2.353,-6.657l-0,-0.619c-0,-2.89 -0.774,-5.109 -2.322,-6.657c-1.548,-1.548 -3.54,-2.323 -5.976,-2.323c-2.395,0 -4.376,0.775 -5.945,2.323c-1.569,1.548 -2.353,3.767 -2.353,6.657l-0,0.619c-0,2.89 0.784,5.109 2.353,6.657c1.569,1.548 3.55,2.323 5.945,2.323Z" style="fill-rule:nonzero;"/><path d="M775.184,367.001l0,-30.715l7.679,-0l0,4.025l1.115,-0c0.495,-1.074 1.424,-2.095 2.787,-3.066c1.362,-0.97 3.426,-1.455 6.192,-1.455c2.395,0 4.49,0.547 6.286,1.641c1.796,1.094 3.189,2.601 4.18,4.521c0.991,1.92 1.486,4.159 1.486,6.719l0,18.33l-7.803,0l0,-17.711c0,-2.312 -0.567,-4.046 -1.703,-5.202c-1.135,-1.156 -2.755,-1.734 -4.861,-1.734c-2.394,0 -4.252,0.795 -5.573,2.385c-1.321,1.589 -1.982,3.808 -1.982,6.657l0,15.605l-7.803,0Z" style="fill-rule:nonzero;"/><path d="M823.709,367.868c-4.005,0 -7.287,-0.867 -9.846,-2.601c-2.56,-1.734 -4.108,-4.211 -4.645,-7.431l7.184,-1.858c0.289,1.445 0.774,2.581 1.455,3.406c0.681,0.826 1.528,1.414 2.539,1.765c1.011,0.351 2.116,0.527 3.313,0.527c1.817,-0 3.158,-0.32 4.025,-0.96c0.867,-0.64 1.301,-1.435 1.301,-2.384c-0,-0.95 -0.413,-1.683 -1.239,-2.199c-0.825,-0.516 -2.147,-0.939 -3.963,-1.269l-1.734,-0.31c-2.147,-0.413 -4.108,-0.98 -5.883,-1.703c-1.775,-0.722 -3.2,-1.724 -4.273,-3.003c-1.073,-1.28 -1.61,-2.932 -1.61,-4.955c-0,-3.055 1.115,-5.398 3.344,-7.028c2.229,-1.631 5.16,-2.446 8.794,-2.446c3.426,-0 6.275,0.763 8.545,2.291c2.271,1.527 3.757,3.53 4.459,6.007l-7.245,2.229c-0.331,-1.569 -1.001,-2.683 -2.013,-3.344c-1.011,-0.66 -2.26,-0.991 -3.746,-0.991c-1.487,0 -2.622,0.258 -3.406,0.774c-0.785,0.516 -1.177,1.229 -1.177,2.137c-0,0.991 0.413,1.724 1.238,2.198c0.826,0.475 1.941,0.836 3.345,1.084l1.734,0.31c2.311,0.412 4.407,0.96 6.285,1.641c1.879,0.681 3.365,1.651 4.459,2.91c1.094,1.259 1.641,2.962 1.641,5.109c-0,3.22 -1.166,5.708 -3.499,7.462c-2.333,1.755 -5.46,2.632 -9.382,2.632Z" style="fill-rule:nonzero;"/><path d="M852.727,367.497c-2.395,-0 -4.49,-0.547 -6.286,-1.641c-1.796,-1.094 -3.189,-2.612 -4.18,-4.552c-0.991,-1.94 -1.486,-4.17 -1.486,-6.688l0,-18.33l7.803,-0l-0,17.711c-0,2.312 0.568,4.046 1.703,5.202c1.135,1.156 2.756,1.734 4.861,1.734c2.395,-0 4.252,-0.795 5.574,-2.385c1.321,-1.589 1.981,-3.808 1.981,-6.657l0,-15.605l7.803,-0l0,30.715l-7.679,0l0,-4.025l-1.115,0c-0.495,1.032 -1.424,2.044 -2.786,3.035c-1.363,0.99 -3.427,1.486 -6.193,1.486Z" style="fill-rule:nonzero;"/><rect x="876.791" y="323.652" width="7.803" height="43.349" style="fill-rule:nonzero;"/><path d="M902.65,367.001c-2.023,0 -3.664,-0.629 -4.923,-1.888c-1.259,-1.26 -1.889,-2.942 -1.889,-5.047l0,-17.34l-7.679,-0l0,-6.44l7.679,-0l0,-9.537l7.803,-0l0,9.537l8.422,-0l0,6.44l-8.422,-0l0,15.977c0,1.239 0.578,1.858 1.734,1.858l5.945,-0l0,6.44l-8.67,0Z" style="fill-rule:nonzero;"/><path d="M926.28,367.868c-2.188,0 -4.149,-0.382 -5.883,-1.145c-1.734,-0.764 -3.106,-1.879 -4.118,-3.344c-1.011,-1.466 -1.517,-3.252 -1.517,-5.357c0,-2.106 0.506,-3.87 1.517,-5.295c1.012,-1.424 2.415,-2.498 4.211,-3.22c1.796,-0.722 3.85,-1.084 6.162,-1.084l8.422,0l0,-1.734c0,-1.445 -0.454,-2.632 -1.362,-3.56c-0.909,-0.929 -2.354,-1.394 -4.335,-1.394c-1.941,0 -3.386,0.444 -4.335,1.332c-0.95,0.887 -1.569,2.033 -1.858,3.437l-7.183,-2.416c0.495,-1.568 1.29,-3.003 2.384,-4.304c1.094,-1.3 2.559,-2.353 4.397,-3.158c1.837,-0.805 4.076,-1.207 6.719,-1.207c4.046,-0 7.245,1.011 9.598,3.034c2.354,2.023 3.53,4.954 3.53,8.794l0,11.456c0,1.239 0.578,1.858 1.734,1.858l2.477,-0l0,6.44l-5.202,0c-1.527,0 -2.786,-0.371 -3.777,-1.114c-0.991,-0.743 -1.486,-1.734 -1.486,-2.973l-0,-0.062l-1.177,0c-0.165,0.496 -0.537,1.146 -1.115,1.951c-0.578,0.805 -1.486,1.517 -2.725,2.136c-1.238,0.62 -2.931,0.929 -5.078,0.929Zm1.363,-6.316c2.188,-0 3.974,-0.609 5.357,-1.827c1.383,-1.218 2.074,-2.838 2.074,-4.861l0,-0.62l-7.865,0c-1.445,0 -2.58,0.31 -3.406,0.929c-0.825,0.62 -1.238,1.487 -1.238,2.601c-0,1.115 0.433,2.023 1.3,2.725c0.867,0.702 2.126,1.053 3.778,1.053Z" style="fill-rule:nonzero;"/><path d="M950.158,367.001l0,-30.715l7.679,-0l0,4.025l1.115,-0c0.495,-1.074 1.424,-2.095 2.787,-3.066c1.362,-0.97 3.426,-1.455 6.192,-1.455c2.395,0 4.49,0.547 6.286,1.641c1.796,1.094 3.189,2.601 4.18,4.521c0.991,1.92 1.486,4.159 1.486,6.719l0,18.33l-7.802,0l-0,-17.711c-0,-2.312 -0.568,-4.046 -1.703,-5.202c-1.136,-1.156 -2.756,-1.734 -4.862,-1.734c-2.394,0 -4.252,0.795 -5.573,2.385c-1.321,1.589 -1.982,3.808 -1.982,6.657l0,15.605l-7.803,0Z" style="fill-rule:nonzero;"/><path d="M996.825,367.001c-2.022,0 -3.664,-0.629 -4.923,-1.888c-1.259,-1.26 -1.889,-2.942 -1.889,-5.047l0,-17.34l-7.678,-0l-0,-6.44l7.678,-0l0,-9.537l7.803,-0l0,9.537l8.422,-0l0,6.44l-8.422,-0l0,15.977c0,1.239 0.578,1.858 1.734,1.858l5.945,-0l0,6.44l-8.67,0Z" style="fill-rule:nonzero;"/><path d="M1023.68,367.868c-4.005,0 -7.287,-0.867 -9.847,-2.601c-2.559,-1.734 -4.107,-4.211 -4.644,-7.431l7.183,-1.858c0.289,1.445 0.775,2.581 1.456,3.406c0.681,0.826 1.527,1.414 2.539,1.765c1.011,0.351 2.116,0.527 3.313,0.527c1.816,-0 3.158,-0.32 4.025,-0.96c0.867,-0.64 1.301,-1.435 1.301,-2.384c-0,-0.95 -0.413,-1.683 -1.239,-2.199c-0.826,-0.516 -2.147,-0.939 -3.963,-1.269l-1.734,-0.31c-2.147,-0.413 -4.108,-0.98 -5.883,-1.703c-1.776,-0.722 -3.2,-1.724 -4.273,-3.003c-1.074,-1.28 -1.61,-2.932 -1.61,-4.955c-0,-3.055 1.114,-5.398 3.344,-7.028c2.229,-1.631 5.16,-2.446 8.793,-2.446c3.427,-0 6.276,0.763 8.546,2.291c2.271,1.527 3.757,3.53 4.459,6.007l-7.245,2.229c-0.331,-1.569 -1.002,-2.683 -2.013,-3.344c-1.012,-0.66 -2.26,-0.991 -3.747,-0.991c-1.486,0 -2.621,0.258 -3.406,0.774c-0.784,0.516 -1.176,1.229 -1.176,2.137c-0,0.991 0.413,1.724 1.238,2.198c0.826,0.475 1.941,0.836 3.344,1.084l1.734,0.31c2.312,0.412 4.407,0.96 6.286,1.641c1.878,0.681 3.365,1.651 4.459,2.91c1.094,1.259 1.641,2.962 1.641,5.109c-0,3.22 -1.167,5.708 -3.499,7.462c-2.333,1.755 -5.46,2.632 -9.382,2.632Z" style="fill-rule:nonzero;"/></g><circle cx="1090.06" cy="27.016" r="24.238" style="fill:none;stroke:#000;stroke-width:5.56px;"/><path d="M1083.18,36.088l-0,-19.207l8.341,0c1.208,0 2.259,0.21 3.156,0.631c0.896,0.421 1.591,1.015 2.085,1.784c0.494,0.768 0.741,1.673 0.741,2.716l-0,0.329c-0,1.153 -0.274,2.086 -0.823,2.799c-0.549,0.714 -1.226,1.235 -2.031,1.564l0,0.494c0.732,0.037 1.299,0.288 1.702,0.755c0.402,0.466 0.603,1.084 0.603,1.852l0,6.283l-3.622,0l0,-5.762c0,-0.439 -0.114,-0.796 -0.343,-1.07c-0.228,-0.274 -0.608,-0.412 -1.138,-0.412l-5.049,0l-0,7.244l-3.622,0Zm3.622,-10.536l4.335,-0c0.86,-0 1.532,-0.233 2.017,-0.7c0.485,-0.466 0.727,-1.084 0.727,-1.852l0,-0.274c0,-0.769 -0.238,-1.386 -0.713,-1.853c-0.476,-0.466 -1.153,-0.699 -2.031,-0.699l-4.335,-0l-0,5.378Z" style="fill-rule:nonzero;"/></g></svg>