<svg width="512" height="513" viewBox="0 0 512 513" fill="none" xmlns="http://www.w3.org/2000/svg">
<path d="M93.0003 109L107.9 139.8L141.7 144.4C148.4 145.3 150.8 153.6 146.2 158L121.5 181.7L127.6 215.3C128.8 221.9 121.8 226.9 116 223.7L85.9003 207.5L55.8003 223.7C50.0003 226.8 42.7003 222 44.3003 214.8L50.3003 181.6L25.6003 157.9C20.8003 153.3 23.4003 145.1 30.2003 144.2L63.9003 139.6L78.8003 108.8C81.6003 102.9 90.2003 103 93.0003 109ZM95.4003 150.6L85.9003 130.8L76.3003 150.6C75.2003 152.9 72.9003 154.7 70.2003 155.1L48.5003 158L64.4003 173.2C66.2003 175 67.2003 177.6 66.7003 180.3L62.8003 201.9L82.0003 191.6C84.3003 190.4 87.2003 190.2 89.6003 191.6L108.9 202L105.1 180.8C104.5 178.2 105.2 175.3 107.3 173.2L123.2 158L101.7 155.1C99.1003 154.8 96.6003 153.1 95.4003 150.6ZM263.2 36.5L278.1 67.3L312 71.9C318.7 72.8 321.1 81.1 316.5 85.6L291.8 109.3L297.9 142.9C299.1 149.5 292.1 154.5 286.3 151.3L256 135.1L225.9 151.3C220.1 154.4 212.8 149.6 214.4 142.4L220.4 109.2L195.6 85.5C190.8 80.9 193.4 72.7 200.2 71.8L233.9 67.2L248.8 36.5C251.8 30.4 260.3 30.5 263.2 36.5ZM265.6 78.1L256 58.3L246.5 78.1C245.4 80.4 243.1 82.2 240.4 82.6L218.6 85.5L234.5 100.7C236.4 102.5 237.3 105.1 236.8 107.8L232.9 129.4L252.2 119.1C254.5 117.9 257.3 117.7 259.8 119.1L279.1 129.5L275.3 108.3C274.7 105.7 275.4 102.8 277.5 100.7L293.4 85.5L271.9 82.5C269.2 82.3 266.8 80.6 265.6 78.1ZM433.3 109L448.2 139.8L482 144.4C488.7 145.3 491.2 153.6 486.5 158L461.8 181.7L467.9 215.3C469.1 221.9 462.1 226.9 456.3 223.7L426.2 207.5L396.1 223.7C390.3 226.8 383 222 384.5 214.8L390.5 181.6L365.8 157.9C361 153.3 363.6 145.1 370.4 144.2L404.1 139.6L419 108.8C421.9 102.9 430.5 103 433.3 109ZM435.7 150.6L426.2 130.8L416.6 150.6C415.5 152.9 413.3 154.7 410.5 155.1L388.8 158L404.6 173.2C406.4 175 407.4 177.6 406.9 180.3L403 201.9L422.3 191.6C424.6 190.4 427.5 190.2 429.9 191.6L449.3 202L445.5 180.8C444.9 178.2 445.6 175.3 447.7 173.2L463.5 158L442 155.1C439.4 154.8 436.9 153.1 435.7 150.6ZM218.9 313.2C216.7 309.4 218 304.5 221.8 302.3C225.6 300.1 230.5 301.4 232.7 305.2L243.2 323.4L280.5 286.1C283.6 283 288.7 283 291.8 286.1C294.9 289.2 294.9 294.3 291.8 297.4L247.1 342.1C243.4 345.8 237.2 345 234.6 340.5L218.9 313.2ZM256 228.7C299.5 228.7 334.8 264 334.8 307.5C334.8 351 299.5 386.3 256 386.3C212.5 386.3 177.2 351 177.2 307.5C177.2 264 212.5 228.7 256 228.7ZM300.4 263.1C275.9 238.6 236.1 238.6 211.6 263.1C187.1 287.6 187.1 327.4 211.6 351.9C236.1 376.4 275.9 376.4 300.4 351.9C324.9 327.3 324.9 287.6 300.4 263.1ZM256 179.2C326.8 179.2 384.2 236.6 384.2 307.4C384.2 334.2 376 359.1 361.9 379.7L400.2 446C403.9 452.2 398.8 459.2 392.2 458.2L353 452L332 477.8C328.3 482.6 321.4 481.8 318.7 477L291.9 430.6C268.5 437.4 243.4 437.4 220.1 430.6L193.3 477C190.6 481.8 183.7 482.6 180 477.8L159 452L119.8 458.2C113.1 459.3 108.4 452 111.6 446.3L150.1 379.7C115.3 328.8 121.8 260.3 165.4 216.7C188.5 193.6 220.6 179.2 256 179.2ZM351.3 393.2C339.1 406.8 324.1 417.7 307.1 425.1L326.7 459L343.5 438.4C345.4 436 348.3 435.1 351.1 435.6L378.1 439.9L351.3 393.2ZM204.8 425.1C187.9 417.7 172.9 406.8 160.7 393.3L133.8 439.9L160.8 435.6C163.5 435.1 166.5 436.1 168.4 438.4L185.2 459L204.8 425.1ZM335.4 228.1C291.6 184.3 220.5 184.3 176.7 228.1C132.9 271.9 132.9 343 176.7 386.8C220.6 430.6 291.6 430.6 335.4 386.8C379.2 343 379.2 271.9 335.4 228.1Z" fill="white"/>
</svg>
