<svg width="512" height="513" viewBox="0 0 512 513" fill="none" xmlns="http://www.w3.org/2000/svg">
<path d="M61.5996 344.9L42.7996 350.98L26.7996 302.02L11.5996 306.98L27.5996 355.86C28.8796 359.94 31.7596 363.3 35.5196 365.22C39.2796 367.14 43.5996 367.54 47.7596 366.18L66.5596 360.1C75.3596 376.18 86.1596 391.14 98.8796 404.66L87.2796 420.66C84.7196 424.1 83.6796 428.34 84.3196 432.5C84.9596 436.74 87.2796 440.5 90.7196 443.06L129.52 471.22C133.04 473.78 137.28 474.82 141.52 474.1C145.76 473.46 149.44 471.14 151.92 467.7L163.6 451.78C180.24 459.78 197.84 465.46 215.92 468.82V488.58C215.92 497.38 223.12 504.58 231.92 504.58H279.92C288.72 504.58 295.92 497.38 295.92 488.58V468.82C314 465.46 331.6 459.7 348.32 451.7L359.84 467.62C362.32 471.14 366 473.38 370.24 474.1C374.56 474.82 378.8 473.78 382.24 471.22L421.04 443.06C424.56 440.5 426.8 436.74 427.44 432.5C428.08 428.26 427.04 424.1 424.56 420.66L413.04 404.58C425.68 391.22 436.56 376.26 445.28 360.02L464.08 366.18C468.16 367.46 472.48 367.14 476.32 365.22C480.16 363.22 482.96 359.94 484.24 355.86L500.24 306.9L485.04 301.94L469.04 350.98L450.24 344.82C443.04 342.42 435.12 345.62 431.2 352.42C423.12 367.3 413.04 381.14 401.36 393.54C396 399.22 395.44 407.86 400 413.94L411.6 429.94L372.8 458.1L361.12 442.02C356.56 435.86 348.4 433.78 341.28 437.06C325.84 444.42 309.6 449.7 293.04 452.82C285.44 454.26 279.84 460.82 279.84 468.5V488.26H231.84V468.5C231.84 460.82 226.32 454.18 218.64 452.82C202 449.7 185.76 444.42 170.24 436.98C163.2 433.78 155.04 435.78 150.48 442.02L138.88 458.02L100.08 429.86L111.6 413.94C116.24 407.78 115.68 399.14 110.24 393.46C98.5596 381.06 88.4796 367.22 80.3196 352.18C76.4796 345.54 68.5596 342.34 61.3596 344.74L61.5996 344.9Z" fill="#EB3300"/>
<path d="M256 424.5C329.84 424.5 394.24 377.22 416.24 306.9L400.96 302.1C381.04 365.7 322.8 408.5 255.92 408.5C189.04 408.5 130.8 365.78 110.88 302.1L95.5996 306.9C117.6 377.22 182 424.5 255.84 424.5H256Z" fill="#EB3300"/>
<path d="M8 272.5H504V288.5H8V272.5Z" fill="#EB3300"/>
<path d="M472 256.5V144.5C472 140.1 468.4 136.5 464 136.5H400V16.5C400 12.1 396.4 8.5 392 8.5H296C291.6 8.5 288 12.1 288 16.5V96.5H224V64.5C224 62.1 222.96 59.86 221.12 58.34L173.12 18.34C170.16 15.86 165.84 15.86 162.88 18.34L114.88 58.34C113.04 59.86 112 62.1 112 64.5V128.5H48C43.6 128.5 40 132.1 40 136.5V256.5H56V144.5H112V256.5H128V68.26L168 34.9L208 68.26V256.5H224V112.5H288V256.5H304V24.5H384V256.5H400V152.5H456V256.5H472Z" fill="#EB3300"/>
<path d="M320 48.5H336V64.5H320V48.5Z" fill="#EB3300"/>
<path d="M352 48.5H368V64.5H352V48.5Z" fill="#EB3300"/>
<path d="M320 88.5H336V104.5H320V88.5Z" fill="#EB3300"/>
<path d="M352 88.5H368V104.5H352V88.5Z" fill="#EB3300"/>
<path d="M320 128.5H336V144.5H320V128.5Z" fill="#EB3300"/>
<path d="M352 128.5H368V144.5H352V128.5Z" fill="#EB3300"/>
<path d="M144 80.5H192V96.5H144V80.5Z" fill="#EB3300"/>
<path d="M144 120.5H192V136.5H144V120.5Z" fill="#EB3300"/>
</svg>
