<svg width="512" height="513" viewBox="0 0 512 513" fill="none" xmlns="http://www.w3.org/2000/svg">
<g clip-path="url(#clip0_203_287)">
<path d="M461.952 398.606C472.065 384.699 477.547 367.963 477.619 350.768C477.728 348.507 476.934 346.295 475.412 344.619C473.89 342.944 471.765 341.942 469.504 341.833C464.814 341.658 460.845 345.264 460.569 349.948C460.634 363.576 456.436 376.883 448.563 388.007C431.914 409.033 400.324 410.1 394.154 410.1C389.442 410.1 385.621 413.92 385.621 418.633C385.621 423.346 389.442 427.167 394.154 427.167C401.698 427.167 440.414 425.793 461.952 398.606Z" fill="white"/>
<path d="M290.133 290.633C290.133 285.921 286.313 282.1 281.6 282.1C276.887 282.1 273.066 285.921 273.066 290.633C273.066 309.485 288.348 324.767 307.2 324.767V333.3C307.2 338.013 311.02 341.833 315.733 341.833C320.446 341.833 324.266 338.013 324.266 333.3V324.767C343.118 324.767 358.4 309.485 358.4 290.633C358.4 271.782 343.118 256.5 324.266 256.5V222.367C333.692 222.367 341.333 230.008 341.333 239.433C341.333 244.146 345.154 247.967 349.866 247.967C354.579 247.967 358.4 244.146 358.4 239.433C358.4 220.582 343.118 205.3 324.266 205.3V196.767C324.266 192.054 320.446 188.233 315.733 188.233C311.02 188.233 307.2 192.054 307.2 196.767V205.3C288.348 205.3 273.066 220.582 273.066 239.433C273.066 258.285 288.348 273.567 307.2 273.567V307.7C297.774 307.7 290.133 300.059 290.133 290.633ZM290.133 239.433C290.133 230.008 297.774 222.367 307.2 222.367V256.5C297.774 256.5 290.133 248.859 290.133 239.433ZM324.266 273.567C333.692 273.567 341.333 281.208 341.333 290.633C341.333 300.059 333.692 307.7 324.266 307.7V273.567Z" fill="white"/>
<path d="M504.866 288.679C483.84 199.327 437.094 147.555 403.337 120.513C445.67 123.704 459.298 141.317 459.699 141.846C462.373 145.663 467.613 146.629 471.472 144.017C475.331 141.405 476.38 136.18 473.83 132.28C473.216 131.359 461.363 114.429 426.897 106.68C435.71 99.4354 440.924 88.706 441.173 77.3C440.032 58.3897 426.868 42.3541 408.542 37.5518C409.293 31.3877 409.675 25.1843 409.685 18.9747C409.676 13.2539 406.801 7.91828 402.029 4.76401C397.256 1.60974 391.221 1.05645 385.954 3.29042C381.646 5.24093 377.645 7.80791 374.076 10.9107C369.888 15.2142 364.123 17.6189 358.118 17.5667C352.123 17.6089 346.37 15.2053 342.187 10.9107C327.148 -2.97869 303.96 -2.97869 288.922 10.9107C284.733 15.2236 278.959 17.6295 272.947 17.5667C266.953 17.6165 261.2 15.2115 257.024 10.9107C253.464 7.81457 249.475 5.25068 245.18 3.29895C239.917 1.07996 233.893 1.6408 229.13 4.7932C224.367 7.9456 221.497 13.2716 221.483 18.9832C221.483 40.2142 225.681 78.0851 252.262 103.514C238.293 112.009 225.246 121.936 213.333 133.134V68.7667C213.333 49.3107 185.813 34.6334 149.333 34.6334C112.853 34.6334 85.3333 49.3107 85.3333 68.7667V154.74C55.4069 157.727 34.1333 171.167 34.1333 188.233V405.279C13.5168 410.817 0 422.047 0 435.7V478.367C0 497.823 27.52 512.5 64 512.5C96.6229 512.5 122.027 500.75 127.036 484.34C141.766 492.139 158.275 495.963 174.933 495.433C211.413 495.433 238.933 480.756 238.933 461.3V350.367C238.933 330.911 211.413 316.233 174.933 316.233C170.659 316.231 166.386 316.444 162.133 316.873V188.233C162.133 169.545 136.73 155.312 102.4 154.211V92.3955C116.917 99.7742 133.056 103.386 149.333 102.9C165.611 103.386 181.75 99.7742 196.267 92.3955V150.593C190.643 156.882 184.994 163.734 179.422 171.329C176.87 175.129 177.771 180.265 181.463 182.97C185.155 185.675 190.324 184.985 193.178 181.407C198.658 173.987 204.532 166.866 210.773 160.073C210.842 159.997 210.901 159.92 210.97 159.851C227.259 141.748 246.388 126.418 267.605 114.463C271.788 116.48 276.214 117.952 280.772 118.84L258.773 139.371C255.328 142.59 255.145 147.993 258.364 151.438C261.583 154.883 266.985 155.066 270.43 151.847L304.563 120.009H307.285V145.609C307.285 150.322 311.106 154.143 315.819 154.143C320.531 154.143 324.352 150.322 324.352 145.609V119.967H327.074L361.207 151.805C363.436 153.887 366.606 154.622 369.524 153.733C372.441 152.844 374.663 150.466 375.352 147.495C376.041 144.524 375.093 141.411 372.864 139.329L350.72 118.712C355.251 117.815 359.648 116.338 363.802 114.318C386.355 126.52 460.493 174.734 488.26 292.588C500.335 343.89 495.983 383.135 475.332 409.204C448.913 442.527 403.072 444.233 394.155 444.233H273.067C268.354 444.233 264.533 448.054 264.533 452.767C264.533 457.48 268.354 461.3 273.067 461.3H394.155C408.661 461.3 458.197 458.305 488.704 419.802C512.751 389.432 518.195 345.315 504.866 288.679ZM64 418.633C92.2197 418.633 110.933 428.873 110.933 435.7C110.933 442.527 92.2197 452.767 64 452.767C35.7803 452.767 17.0667 442.527 17.0667 435.7C17.0667 428.873 35.7803 418.633 64 418.633ZM64 495.433C35.7803 495.433 17.0667 485.193 17.0667 478.367V459.329C31.5838 466.708 47.7225 470.32 64 469.833C80.2775 470.32 96.4162 466.708 110.933 459.329V478.367C110.933 485.193 92.2197 495.433 64 495.433ZM174.933 478.367C146.714 478.367 128 468.127 128 461.3V373.996C142.517 381.374 158.656 384.986 174.933 384.5C191.211 384.986 207.35 381.374 221.867 373.996V461.3C221.867 468.127 203.153 478.367 174.933 478.367ZM221.867 350.367C221.867 357.193 203.153 367.433 174.933 367.433C146.714 367.433 128 357.193 128 350.367C128 343.54 146.714 333.3 174.933 333.3C203.153 333.3 221.867 343.54 221.867 350.367ZM110.933 350.367V412.071C96.4162 404.693 80.2775 401.08 64 401.567C59.7253 401.564 55.4531 401.777 51.2 402.207V211.862C65.7172 219.241 81.8559 222.853 98.1333 222.367C114.411 222.853 130.55 219.241 145.067 211.862V319.945C124.45 325.484 110.933 336.713 110.933 350.367ZM145.067 188.233C145.067 195.06 126.353 205.3 98.1333 205.3C69.9136 205.3 51.2 195.06 51.2 188.233C51.2 181.407 69.9136 171.167 98.1333 171.167C126.353 171.167 145.067 181.407 145.067 188.233ZM149.333 85.8334C121.114 85.8334 102.4 75.5934 102.4 68.7667C102.4 61.94 121.114 51.7 149.333 51.7C177.553 51.7 196.267 61.94 196.267 68.7667C196.267 75.5934 177.553 85.8334 149.333 85.8334ZM424.107 77.3C424.107 91.2862 408.96 102.763 389.973 102.9C386.798 102.88 383.633 102.517 380.536 101.816C392.921 88.6029 401.529 72.3053 405.461 54.627C415.733 57.6535 423.121 66.6373 424.107 77.3ZM246.34 24.2227C253.547 30.9754 263.072 34.7023 272.947 34.6334C282.829 34.7075 292.361 30.9803 299.571 24.2227C303.789 19.964 309.535 17.5681 315.529 17.5681C321.523 17.5681 327.268 19.964 331.486 24.2227C338.696 30.9853 348.233 34.7132 358.118 34.6334C368.003 34.7097 377.539 30.9823 384.751 24.2227C387.116 22.1327 389.747 20.3651 392.576 18.9662C392.576 34.8126 389.632 73.9891 362.138 95.4675C355.952 100.113 348.454 102.679 340.719 102.798C348.106 90.1095 353.953 76.5853 358.136 62.5118C358.953 59.5728 358.14 56.4213 356.003 54.2442C353.866 52.0672 350.731 51.1954 347.777 51.9573C344.823 52.7192 342.5 54.999 341.683 57.9379C336.957 73.9785 329.691 89.1583 320.162 102.9H311.39C301.88 89.1462 294.613 73.97 289.86 57.9379C288.595 53.3971 283.888 50.7418 279.347 52.0072C274.806 53.2726 272.151 57.9795 273.417 62.5203C277.603 76.606 283.456 90.1417 290.85 102.84C282.96 102.8 275.294 100.217 268.988 95.476C241.493 74.0062 238.549 34.8296 238.549 19.0344C241.377 20.3893 244 22.1359 246.34 24.2227Z" fill="white"/>
<path d="M461.952 398.606C472.065 384.699 477.547 367.963 477.619 350.768C477.728 348.507 476.934 346.295 475.412 344.62C473.89 342.944 471.765 341.942 469.504 341.833C464.817 341.667 460.853 345.268 460.569 349.949C460.634 363.576 456.436 376.883 448.563 388.007C431.914 409.033 400.324 410.1 394.154 410.1C389.442 410.1 385.621 413.921 385.621 418.633C385.621 423.346 389.442 427.167 394.154 427.167C401.698 427.167 440.414 425.793 461.952 398.606Z" fill="white"/>
</g>
<defs>
<clipPath id="clip0_203_287">
<rect width="512" height="512" fill="white" transform="translate(0 0.5)"/>
</clipPath>
</defs>
</svg>
